<?xml version="1.0" encoding="UTF-8" standalone="no"?>
<svg xmlns="http://www.w3.org/2000/svg" version="1.2" baseProfile="tiny" viewBox="0.00 0.00 200.00 200.00">
<path fill="#ffffff" d="
  M 182.10 135.51
  Q 182.11 133.36 180.47 132.13
  A 0.53 0.53 0.0 0 0 179.63 132.44
  Q 178.44 137.84 179.00 143.36
  Q 179.04 143.77 179.23 143.57
  L 179.24 143.56
  Q 179.27 143.52 179.30 143.36
  L 180.61 136.57
  Q 180.70 136.06 181.18 135.87
  L 182.10 135.51
  Q 181.90 137.43 182.85 138.87
  Q 183.12 139.28 183.13 139.77
  Q 183.14 141.79 183.30 143.81
  Q 183.30 143.87 183.93 146.66
  Q 184.33 148.47 183.51 150.26
  Q 178.50 161.20 178.48 161.25
  Q 177.74 163.06 175.83 164.73
  Q 173.57 166.72 171.99 171.30
  Q 171.83 171.77 171.98 172.25
  Q 173.29 176.22 171.11 179.88
  Q 166.41 187.77 157.31 191.07
  Q 153.29 192.52 146.09 192.42
  Q 140.67 192.34 134.66 192.70
  C 124.44 193.29 114.57 192.24 103.19 191.38
  Q 98.62 191.03 94.91 193.01
  C 94.07 193.46 92.89 193.56 92.18 193.38
  Q 84.35 191.40 76.00 191.55
  Q 73.50 191.60 71.80 189.68
  C 70.89 188.65 69.86 188.31 68.74 188.26
  C 65.28 188.11 61.06 188.31 57.06 187.74
  Q 49.54 186.67 42.96 186.89
  Q 39.26 187.02 37.85 186.26
  C 34.70 184.57 35.31 181.11 36.96 178.27
  Q 37.23 177.82 36.70 177.74
  Q 35.65 177.60 32.04 176.72
  C 28.87 175.94 27.98 174.29 27.42 171.12
  C 27.03 168.93 26.59 165.28 25.68 162.35
  C 24.42 158.27 22.72 150.91 26.72 148.45
  Q 27.77 147.81 26.90 146.94
  Q 24.87 144.89 27.25 142.52
  Q 28.69 141.09 27.28 140.34
  Q 26.57 139.96 25.96 138.08
  Q 25.80 137.57 26.11 137.12
  L 27.73 134.85
  A 0.83 0.83 0.0 0 0 27.73 133.89
  L 26.04 131.53
  A 2.49 2.48 54.6 0 1 26.62 128.06
  L 28.22 126.91
  Q 28.68 126.58 28.67 126.01
  Q 28.44 118.02 29.24 108.34
  C 29.37 106.86 28.66 105.67 27.85 104.82
  Q 25.96 102.86 19.98 96.75
  Q 19.51 96.27 18.83 96.26
  Q 17.04 96.24 15.76 95.27
  Q 15.34 94.96 15.33 94.43
  Q 15.28 92.06 15.23 91.70
  C 14.80 88.19 9.80 86.64 10.90 82.91
  Q 12.17 78.60 14.47 74.53
  A 1.34 1.24 -85.8 0 1 15.05 73.99
  L 20.87 71.23
  A 2.96 2.95 74.4 0 1 25.07 73.60
  L 26.58 88.45
  Q 26.65 89.14 27.30 88.91
  Q 29.26 88.25 29.39 86.54
  Q 29.88 80.12 30.86 67.62
  Q 31.95 53.76 34.56 39.45
  Q 36.00 31.55 42.95 28.71
  Q 45.25 27.77 49.47 26.42
  Q 50.25 26.17 50.18 25.36
  Q 49.87 21.61 48.29 19.64
  A 1.66 1.66 0.0 0 1 49.18 16.98
  L 65.64 12.84
  Q 66.81 12.55 67.92 13.00
  Q 71.36 14.40 74.44 16.05
  Q 76.25 17.01 76.44 18.61
  Q 76.49 19.10 76.98 19.02
  L 88.40 16.96
  Q 88.95 16.86 88.97 16.30
  Q 89.14 12.48 87.23 10.53
  Q 86.84 10.13 86.84 9.58
  Q 86.85 7.27 89.04 6.76
  Q 92.04 6.05 102.04 5.35
  Q 108.04 4.94 110.40 5.92
  Q 114.53 7.63 116.63 12.50
  A 2.90 2.89 -8.6 0 0 118.98 14.23
  C 124.00 14.76 129.55 15.66 132.91 19.73
  Q 143.80 32.92 151.21 47.79
  Q 151.42 48.23 151.91 48.18
  Q 158.76 47.54 165.86 50.95
  Q 166.31 51.17 166.50 51.63
  Q 167.92 55.19 170.46 59.85
  Q 171.52 61.78 171.40 63.66
  Q 171.14 67.91 169.04 72.52
  Q 168.53 73.63 166.44 74.50
  Q 165.86 74.74 165.92 75.37
  L 166.07 76.79
  Q 166.12 77.30 165.85 77.73
  Q 165.08 78.95 165.35 79.70
  Q 167.05 84.56 167.65 85.83
  Q 171.19 93.41 174.30 101.15
  Q 174.36 101.30 174.19 101.40
  L 174.19 101.41
  Q 174.08 101.47 173.98 101.26
  L 163.46 79.05
  A 0.55 0.54 59.5 0 0 162.65 78.84
  L 162.14 79.20
  A 0.64 0.64 0.0 0 0 161.96 80.02
  Q 169.59 93.44 175.56 107.58
  C 176.26 109.22 176.25 111.00 176.66 112.51
  Q 176.97 113.67 177.46 112.57
  Q 178.12 111.07 177.60 109.29
  Q 177.48 108.87 177.77 109.22
  Q 177.81 109.26 177.85 109.30
  Q 177.90 109.35 177.91 109.46
  C 178.40 116.16 179.87 122.76 180.49 129.37
  Q 180.62 130.73 181.12 131.77
  C 181.68 132.92 182.91 134.12 182.10 135.51
  Z
  M 90.09 11.98
  L 90.11 11.42
  Q 90.13 10.94 90.40 10.55
  Q 91.67 8.69 94.27 8.54
  Q 96.59 8.40 106.80 7.69
  Q 107.30 7.66 107.64 8.03
  Q 110.10 10.70 111.02 13.64
  Q 111.23 14.30 111.92 14.33
  L 114.70 14.44
  Q 115.56 14.47 115.22 13.69
  Q 113.47 9.68 108.99 7.33
  Q 107.15 6.37 104.35 6.84
  Q 100.47 7.48 93.75 7.70
  Q 91.51 7.78 88.66 9.03
  Q 88.12 9.27 88.37 9.79
  L 89.47 12.11
  Q 90.04 13.30 90.09 11.98
  Z
  M 107.12 10.56
  L 97.35 12.08
  A 5.00 5.00 0.0 0 0 94.97 13.12
  Q 93.55 14.27 92.66 15.67
  Q 91.83 17.01 93.38 16.76
  L 109.03 14.34
  Q 109.95 14.20 109.55 13.36
  L 108.59 11.34
  A 1.39 1.38 -16.9 0 0 107.12 10.56
  Z
  M 69.31 16.29
  Q 70.86 17.89 71.26 19.84
  Q 71.47 20.87 72.51 20.71
  L 73.71 20.52
  Q 74.78 20.36 74.47 19.32
  C 73.66 16.53 70.26 16.29 68.77 15.24
  C 67.06 14.04 64.72 14.61 63.14 15.17
  Q 62.48 15.41 63.18 15.31
  C 64.77 15.09 67.98 14.91 69.31 16.29
  Z
  M 52.03 18.69
  Q 55.44 17.38 61.42 15.85
  Q 61.60 15.81 61.52 15.69
  Q 61.37 15.48 61.31 15.50
  L 50.06 18.60
  Q 49.55 18.74 49.64 19.39
  Q 49.72 19.89 50.05 20.30
  Q 50.44 20.77 50.67 20.21
  Q 51.15 19.03 52.03 18.69
  Z
  M 133.88 27.77
  Q 134.08 25.81 135.19 27.45
  Q 143.69 40.03 148.24 47.52
  Q 149.40 49.41 149.96 51.62
  Q 150.54 53.94 150.50 56.11
  Q 150.45 58.48 150.85 62.86
  Q 151.57 70.76 151.36 75.26
  Q 151.35 75.39 151.80 80.15
  Q 151.87 80.88 152.53 80.57
  L 153.00 80.35
  A 0.99 0.99 0.0 0 0 153.55 79.30
  Q 152.84 75.07 153.08 73.51
  Q 153.77 69.02 153.21 66.00
  Q 151.82 58.56 151.25 54.58
  Q 150.70 50.73 149.04 47.42
  Q 142.39 34.17 133.50 23.09
  Q 131.02 20.00 129.07 19.04
  Q 120.29 14.75 110.11 15.83
  Q 96.43 17.29 89.25 18.75
  Q 82.18 20.19 73.82 21.75
  C 66.44 23.14 60.71 24.86 52.95 26.95
  Q 48.03 28.28 42.64 30.90
  Q 40.30 32.04 38.60 34.11
  Q 38.52 34.21 38.63 34.38
  Q 38.77 34.60 38.99 34.45
  Q 44.06 31.01 47.79 30.04
  Q 54.12 28.39 67.29 24.57
  Q 70.97 23.50 75.84 23.42
  A 0.53 0.53 0.0 0 1 76.38 23.95
  L 76.38 94.99
  Q 76.38 96.38 77.21 95.27
  C 78.80 93.14 79.26 91.53 79.17 88.45
  Q 78.30 56.42 78.19 23.86
  Q 78.19 23.01 79.02 22.85
  Q 81.02 22.45 83.34 21.78
  Q 85.66 21.12 87.68 20.88
  Q 93.70 20.17 107.50 18.00
  Q 113.08 17.13 120.24 18.25
  Q 126.51 19.24 131.07 23.32
  Q 131.43 23.65 131.51 24.13
  L 133.57 37.45
  A 1.11 1.10 -89.3 0 1 132.28 38.71
  Q 131.80 38.62 130.69 38.05
  Q 122.99 34.04 114.52 34.56
  Q 111.22 34.76 109.77 34.96
  Q 91.65 37.44 80.31 39.58
  Q 79.71 39.70 79.34 40.20
  A 0.58 0.58 0.0 0 0 79.80 41.13
  Q 82.47 41.14 83.67 40.88
  Q 97.64 37.88 112.74 36.13
  Q 124.24 34.80 133.15 40.41
  Q 133.55 40.67 133.62 41.14
  L 139.02 75.96
  Q 139.11 76.52 139.57 76.86
  L 139.95 77.12
  A 0.36 0.36 0.0 0 0 140.52 76.78
  Q 139.02 61.91 138.78 59.06
  Q 138.30 53.36 136.99 47.37
  Q 135.87 42.22 135.36 35.70
  C 135.14 32.91 133.62 30.25 133.88 27.77
  Z
  M 67.42 17.55
  L 57.93 20.15
  A 4.98 4.97 14.9 0 0 55.70 21.45
  Q 54.42 22.74 53.70 24.23
  Q 53.03 25.65 54.53 25.23
  L 69.73 21.07
  Q 70.63 20.83 70.14 20.05
  L 68.96 18.16
  A 1.38 1.38 0.0 0 0 67.42 17.55
  Z
  M 130.72 29.75
  L 127.28 34.58
  Q 126.92 35.08 127.50 35.31
  L 131.51 36.91
  A 0.34 0.34 0.0 0 0 131.98 36.56
  L 131.30 29.90
  Q 131.21 29.05 130.72 29.75
  Z
  M 136.71 36.25
  Q 136.93 40.52 137.95 44.95
  Q 138.07 45.50 138.58 45.25
  Q 140.22 44.47 141.74 42.95
  A 0.72 0.72 0.0 0 0 141.82 42.02
  L 137.51 35.97
  Q 136.63 34.74 136.71 36.25
  Z
  M 35.00 50.85
  C 35.57 50.09 36.43 48.78 36.63 47.72
  Q 37.60 42.66 38.37 37.58
  Q 38.54 36.41 37.72 37.25
  Q 36.64 38.35 36.29 40.35
  Q 35.94 42.29 34.42 50.60
  Q 34.17 51.94 35.00 50.85
  Z
  M 134.47 57.29
  A 0.47 0.46 -9.6 0 0 134.88 56.72
  Q 133.41 50.80 133.20 46.35
  C 133.09 44.07 132.30 42.91 130.45 41.90
  C 127.81 40.46 121.02 38.11 118.14 40.07
  Q 117.01 40.84 115.30 41.30
  Q 113.70 41.74 111.37 43.57
  Q 102.86 50.28 96.20 57.72
  Q 91.05 63.49 89.10 65.82
  C 87.67 67.53 86.74 70.10 85.57 72.12
  A 0.35 0.35 0.0 0 0 85.91 72.64
  Q 90.40 72.09 107.57 70.06
  C 114.38 69.25 121.39 67.72 126.83 63.66
  C 127.83 62.92 128.30 61.80 128.90 60.60
  C 129.98 58.46 132.03 57.48 134.47 57.29
  Z
  M 35.70 51.74
  Q 35.43 52.40 35.95 51.91
  Q 38.10 49.88 39.50 49.54
  Q 49.59 47.09 67.69 43.15
  Q 69.68 42.72 74.76 41.98
  Q 75.40 41.88 75.33 41.24
  L 75.29 40.82
  Q 75.21 40.04 74.44 40.21
  Q 55.99 44.43 40.19 47.94
  Q 36.95 48.66 35.70 51.74
  Z
  M 79.75 46.35
  A 0.16 0.16 0.0 0 0 79.60 46.51
  L 79.60 54.49
  Q 79.60 55.15 80.09 54.71
  C 82.88 52.23 85.99 49.79 86.40 46.21
  Q 86.46 45.66 85.92 45.72
  L 79.75 46.35
  Z
  M 75.20 47.43
  A 0.37 0.37 0.0 0 0 74.74 47.08
  C 70.03 48.32 65.72 51.82 61.39 54.58
  Q 56.84 57.48 54.89 59.32
  Q 46.19 67.51 41.23 78.05
  A 0.62 0.62 0.0 0 0 41.85 78.93
  L 66.19 76.45
  A 1.49 1.47 -79.0 0 0 67.35 75.66
  Q 69.21 72.08 71.75 66.50
  Q 71.78 66.44 73.78 62.91
  Q 75.25 60.30 75.29 57.53
  Q 75.35 53.28 75.20 47.43
  Z
  M 163.87 67.96
  Q 166.32 68.70 166.09 71.83
  Q 166.04 72.41 166.62 72.32
  Q 167.51 72.19 168.02 71.07
  Q 171.15 64.24 168.15 57.96
  C 167.07 55.68 165.68 51.99 163.42 51.35
  Q 157.87 49.79 153.29 49.67
  A 1.31 1.31 0.0 0 0 151.97 51.22
  L 155.32 69.85
  Q 155.43 70.44 155.93 70.78
  Q 156.95 71.45 159.00 71.41
  Q 159.47 71.40 159.52 70.94
  Q 159.98 66.78 163.87 67.96
  Z
  M 31.42 88.35
  L 33.68 88.49
  A 0.24 0.24 0.0 0 0 33.93 88.26
  L 33.94 88.13
  A 33.73 1.15 -86.5 0 0 34.85 54.40
  L 34.41 54.37
  A 33.73 1.15 -86.5 0 0 31.20 87.97
  L 31.20 88.10
  A 0.24 0.24 0.0 0 0 31.42 88.35
  Z
  M 162.94 77.28
  L 162.70 68.93
  A 0.12 0.12 0.0 0 0 162.57 68.81
  L 162.54 68.81
  A 2.73 1.65 88.3 0 0 160.97 71.59
  L 161.07 74.73
  A 2.73 1.65 88.3 0 0 162.80 77.41
  L 162.83 77.40
  A 0.12 0.12 0.0 0 0 162.94 77.28
  Z
  M 22.41 74.11
  Q 22.64 74.10 22.85 73.98
  Q 23.45 73.67 22.83 73.41
  C 20.06 72.22 17.58 74.18 15.75 76.28
  Q 14.49 77.73 13.07 82.42
  Q 12.86 83.11 13.49 82.75
  L 15.84 81.39
  A 1.93 1.92 -30.0 0 1 18.47 82.09
  L 23.35 90.55
  A 0.23 0.23 0.0 0 1 23.27 90.87
  L 21.82 91.71
  Q 20.48 92.48 21.96 92.94
  Q 23.18 93.31 24.45 92.45
  Q 25.55 91.71 24.89 90.57
  L 20.27 82.58
  Q 19.98 82.06 20.11 81.48
  L 21.65 74.66
  Q 21.76 74.15 22.41 74.11
  Z
  M 139.83 78.22
  A 0.29 0.29 0.0 0 0 139.53 78.11
  L 80.21 93.01
  A 0.29 0.29 0.0 0 0 80.05 93.13
  L 77.60 96.57
  A 0.29 0.29 0.0 0 0 77.91 97.01
  L 140.14 79.32
  A 0.29 0.29 0.0 0 0 140.30 78.88
  L 139.83 78.22
  Z
  M 150.64 85.83
  L 157.29 79.02
  Q 157.45 78.85 157.35 78.73
  L 157.35 78.72
  Q 157.24 78.58 157.09 78.69
  Q 153.10 81.81 150.30 84.20
  Q 149.69 84.71 149.95 85.65
  Q 150.13 86.35 150.64 85.83
  Z
  M 164.6202 87.9701
  A 2.95 0.27 61.0 0 0 163.4261 85.2591
  A 2.95 0.27 61.0 0 0 161.7598 82.8099
  A 2.95 0.27 61.0 0 0 162.9539 85.5209
  A 2.95 0.27 61.0 0 0 164.6202 87.9701
  Z
  M 153.95 138.29
  L 152.54 140.45
  Q 152.14 141.06 152.72 141.41
  Q 155.78 143.33 155.15 146.03
  Q 154.96 146.81 155.77 146.81
  L 158.12 146.79
  A 2.38 2.37 -3.2 0 1 160.51 148.92
  L 161.90 162.52
  Q 162.07 164.18 163.10 162.87
  Q 164.48 161.13 164.34 159.00
  Q 163.78 150.73 163.96 141.50
  C 164.04 137.34 164.40 131.15 166.76 127.59
  Q 167.04 127.16 167.46 126.88
  Q 169.43 125.57 172.34 128.04
  Q 177.06 132.04 176.99 137.49
  Q 176.85 148.71 176.84 151.85
  Q 176.84 152.49 177.30 152.05
  Q 178.47 150.94 178.47 149.25
  Q 178.46 146.28 178.07 139.00
  Q 177.83 134.48 179.57 130.49
  A 1.12 0.15 82.2 0 0 179.57 129.65
  L 178.30 118.84
  Q 178.24 118.34 177.87 118.00
  L 142.41 84.61
  A 3.48 3.47 -33.2 0 0 138.85 83.87
  L 79.62 104.99
  A 1.75 1.73 80.2 0 0 78.46 106.65
  L 78.61 123.04
  A 0.52 0.52 0.0 0 0 79.13 123.56
  L 147.28 122.96
  Q 147.95 122.95 148.45 123.39
  L 151.82 126.31
  A 2.67 2.67 0.0 0 1 152.55 129.30
  L 151.21 132.65
  A 1.64 1.63 31.3 0 0 151.66 134.48
  L 153.66 136.22
  A 1.59 1.59 0.0 0 1 153.95 138.29
  Z
  M 155.28 88.62
  L 154.29 89.52
  A 0.24 0.24 0.0 0 0 154.27 89.86
  L 154.39 89.99
  A 24.95 0.82 47.7 0 0 171.79 107.89
  L 171.92 107.77
  A 24.95 0.82 47.7 0 0 155.74 88.76
  L 155.62 88.64
  A 0.24 0.24 0.0 0 0 155.28 88.62
  Z
  M 33.07 90.27
  L 74.89 97.70
  Q 76.04 97.90 75.54 96.84
  L 75.15 96.02
  Q 74.66 94.97 73.52 94.82
  L 33.04 89.57
  Q 33.00 89.56 32.99 89.60
  L 32.86 89.88
  Q 32.72 90.21 33.07 90.27
  Z
  M 27.16 91.62
  Q 26.80 91.29 26.71 91.76
  Q 26.16 94.54 29.35 95.59
  Q 29.83 95.74 29.67 95.27
  Q 29.01 93.34 27.16 91.62
  Z
  M 18.75 93.93
  L 29.67 103.40
  Q 29.89 103.58 30.07 103.37
  L 30.32 103.09
  A 0.38 0.38 0.0 0 0 30.27 102.54
  Q 24.35 97.78 19.84 93.02
  Q 19.06 92.20 18.48 92.26
  Q 17.59 92.36 16.86 92.89
  A 0.60 0.60 0.0 0 0 16.64 93.46
  L 16.69 93.72
  A 0.49 0.49 0.0 0 0 17.20 94.13
  Q 17.57 94.11 17.93 93.87
  Q 18.36 93.59 18.75 93.93
  Z
  M 45.89 124.98
  Q 55.63 124.69 61.31 124.23
  Q 68.55 123.65 77.04 123.80
  A 0.74 0.74 0.0 0 0 77.79 123.06
  L 77.64 106.01
  A 0.79 0.79 0.0 0 0 77.05 105.26
  Q 57.35 100.16 37.75 94.71
  Q 36.70 94.41 31.99 93.69
  Q 31.55 93.63 31.54 94.07
  L 30.34 123.64
  Q 30.25 126.01 32.62 125.89
  Q 37.95 125.62 43.50 125.51
  Q 43.99 125.50 44.70 125.26
  Q 45.50 124.99 45.89 124.98
  Z
  M 61.45 124.81
  Q 57.04 125.24 47.79 125.34
  C 45.75 125.36 43.94 126.05 42.08 126.10
  Q 37.38 126.21 32.01 126.68
  Q 30.37 126.83 29.24 128.03
  L 28.18 129.16
  Q 26.98 130.43 28.72 130.37
  Q 35.39 130.18 45.24 129.36
  Q 51.43 128.85 61.79 128.54
  Q 119.22 126.84 149.97 127.07
  A 0.29 0.28 -23.3 0 0 150.17 126.58
  L 148.26 124.79
  Q 147.72 124.27 146.97 124.26
  Q 98.17 123.75 64.07 124.59
  Q 63.57 124.60 61.45 124.81
  Z
  M 173.82 134.01
  Q 175.09 136.04 175.58 138.98
  A 0.21 0.21 0.0 0 0 175.82 139.16
  L 176.10 139.11
  Q 176.12 139.11 176.12 139.10
  Q 176.39 131.86 170.52 127.95
  A 1.93 1.92 -55.1 0 0 167.90 128.42
  Q 166.41 130.48 166.10 133.14
  Q 164.82 144.36 165.82 159.83
  A 6.84 4.33 33.2 0 0 167.41 163.33
  Q 168.02 164.06 168.96 164.46
  Q 169.91 164.85 169.86 163.82
  Q 169.35 153.78 169.63 145.22
  Q 169.81 139.78 171.42 134.34
  A 1.33 1.33 0.0 0 1 173.82 134.01
  Z
  M 150.46 135.92
  A 0.19 0.19 0.0 0 0 150.63 135.66
  L 149.50 132.50
  Q 149.43 132.27 149.19 132.28
  Q 93.50 133.26 68.01 133.87
  Q 52.52 134.24 31.49 135.42
  A 2.49 2.12 -49.6 0 0 30.93 135.51
  Q 29.73 135.85 28.88 136.79
  A 0.63 0.62 -68.9 0 0 29.34 137.84
  Q 77.11 137.49 124.50 136.74
  Q 139.49 136.50 150.46 135.92
  Z
  M 90.47 143.11
  Q 56.12 143.41 31.85 142.98
  Q 29.28 142.93 28.52 144.53
  Q 28.05 145.54 29.16 145.59
  C 49.93 146.59 70.79 146.40 90.50 146.23
  C 110.20 146.05 131.06 145.88 151.81 144.51
  Q 152.92 144.44 152.43 143.44
  Q 151.64 141.85 149.08 141.95
  Q 124.81 142.81 90.47 143.11
  Z
  M 63.55 153.90
  Q 62.61 154.05 58.75 154.16
  Q 49.59 154.41 35.25 154.68
  Q 31.97 154.74 28.74 155.41
  Q 28.24 155.51 27.90 155.89
  Q 26.86 157.08 27.02 158.58
  Q 27.67 164.91 29.62 172.30
  A 2.47 2.46 -89.6 0 0 31.34 174.05
  Q 38.44 176.02 43.57 176.53
  Q 56.91 177.84 69.99 176.79
  Q 72.09 176.62 72.30 178.72
  L 72.48 180.50
  A 2.35 2.34 -2.3 0 0 74.77 182.60
  Q 81.35 182.70 86.42 183.04
  C 87.65 183.13 89.30 182.50 90.15 181.66
  C 92.63 179.18 94.48 178.67 98.17 178.97
  Q 108.63 179.82 112.25 179.71
  Q 126.50 179.30 140.75 178.78
  Q 146.94 178.55 153.26 177.03
  Q 157.35 176.05 159.61 174.15
  Q 160.39 173.49 161.23 171.91
  Q 161.75 170.94 161.51 169.30
  Q 160.72 163.66 160.32 161.66
  C 159.60 158.03 159.94 153.70 159.27 149.96
  A 2.08 2.07 -89.6 0 0 157.62 148.28
  Q 155.20 147.82 153.62 148.87
  A 2.19 2.19 0.0 0 1 152.68 149.21
  C 149.01 149.59 146.03 150.03 142.78 150.14
  Q 105.27 151.42 95.50 151.56
  Q 71.77 151.91 48.04 151.03
  Q 42.89 150.83 38.96 150.97
  Q 33.45 151.16 29.81 150.60
  Q 29.76 150.59 29.73 150.63
  Q 29.63 150.76 29.63 150.86
  Q 29.62 151.04 29.79 151.09
  C 31.47 151.55 33.10 151.97 34.82 152.03
  Q 53.33 152.63 63.46 152.73
  Q 70.25 152.80 63.55 153.90
  Z
  M 165.40 163.00
  A 0.51 0.50 -45.6 0 0 164.88 163.01
  Q 161.61 164.99 162.79 169.01
  Q 162.96 169.60 163.35 169.12
  Q 164.58 167.57 166.99 166.14
  Q 167.44 165.87 167.34 165.35
  Q 167.07 163.91 165.40 163.00
  Z"
/>
<path fill="#ffffff" d="
  M 160.12 57.52
  L 164.63 58.32
  Q 165.53 58.48 165.03 57.71
  Q 163.43 55.28 162.88 53.02
  Q 162.75 52.52 163.24 52.34
  Q 163.60 52.20 163.74 52.51
  Q 164.92 55.10 166.49 58.09
  Q 167.29 59.61 165.57 59.70
  C 163.65 59.80 158.70 59.05 157.26 57.01
  Q 155.53 54.54 154.61 51.51
  A 0.39 0.34 10.0 0 1 155.19 51.16
  L 155.77 51.51
  A 0.58 0.57 4.1 0 1 155.98 51.75
  L 157.92 55.84
  Q 158.59 57.24 160.12 57.52
  Z"
/>
<path fill="#ffffff" d="
  M 167.23 67.24
  A 1.95 1.82 -5.8 0 0 165.69 66.07
  Q 160.66 65.43 158.03 69.85
  Q 157.37 70.97 156.84 69.78
  C 155.82 67.51 157.44 63.36 158.74 60.76
  Q 158.95 60.34 159.41 60.42
  L 168.30 62.00
  A 0.84 0.84 0.0 0 1 168.99 62.89
  L 168.65 67.35
  A 0.64 0.64 0.0 0 1 167.51 67.70
  Q 167.32 67.46 167.23 67.24
  Z"
/>
<path fill="#ffffff" d="
  M 129.15 91.78
  L 132.02 119.82
  Q 132.04 120.03 131.83 120.05
  L 128.68 120.37
  A 0.30 0.29 84.2 0 1 128.36 120.10
  L 125.52 92.29
  Q 125.47 91.79 125.94 91.62
  L 136.20 87.96
  Q 136.87 87.72 136.94 88.42
  L 137.27 91.70
  Q 137.34 92.39 136.65 92.35
  Q 136.30 92.34 135.98 92.44
  Q 135.49 92.60 135.54 93.11
  L 138.24 119.56
  A 0.28 0.27 83.8 0 1 138.00 119.87
  L 135.06 120.16
  Q 134.65 120.21 134.61 119.80
  Q 133.24 107.35 131.96 94.67
  Q 131.91 94.13 131.67 93.95
  Q 131.27 93.64 130.72 94.00
  A 0.67 0.66 -16.3 0 1 129.69 93.44
  Q 129.71 92.09 129.65 91.72
  A 0.25 0.25 0.0 0 0 129.15 91.78
  Z"
/>
<path fill="#ffffff" d="
  M 150.75 100.51
  Q 148.22 101.40 148.59 104.83
  A 0.60 0.60 0.0 0 1 147.57 105.33
  Q 142.80 100.68 143.72 93.93
  C 144.13 90.93 147.00 89.34 149.40 92.00
  Q 151.16 93.96 153.67 96.23
  Q 157.47 99.68 157.50 99.71
  Q 161.60 103.82 168.76 111.06
  Q 168.93 111.23 168.77 111.39
  L 168.77 111.40
  Q 168.72 111.44 168.53 111.30
  L 153.87 100.88
  A 3.57 3.26 -35.6 0 0 150.75 100.51
  Z"
/>
<path fill="#ffffff" d="
  M 120.77 97.87
  Q 120.50 99.79 121.95 102.34
  C 123.50 105.08 126.25 107.10 126.64 110.79
  Q 127.11 115.12 127.07 116.91
  Q 127.00 120.35 123.55 120.69
  Q 123.45 120.70 123.03 120.71
  Q 119.32 120.74 118.94 117.05
  L 118.33 111.01
  A 1.11 1.11 0.0 0 1 119.31 109.80
  L 120.61 109.67
  A 0.97 0.96 84.1 0 1 121.67 110.54
  L 122.24 116.13
  A 0.60 0.59 -6.5 0 0 122.91 116.66
  Q 123.36 116.60 123.38 116.29
  C 123.50 113.23 123.27 111.14 121.14 108.52
  C 118.81 105.65 117.60 104.01 117.50 100.63
  Q 117.43 97.90 117.54 97.01
  Q 117.94 93.59 121.45 92.66
  C 125.32 91.63 125.31 98.10 125.40 100.91
  Q 125.43 101.86 124.49 101.95
  L 122.93 102.11
  A 0.75 0.74 -3.2 0 1 122.11 101.38
  Q 122.10 99.14 121.86 97.95
  Q 121.21 94.70 120.77 97.87
  Z"
/>
<path fill="#ffffff" d="
  M 111.58 110.45
  Q 111.53 114.59 112.18 120.32
  A 0.50 0.49 -6.9 0 1 111.74 120.87
  L 109.59 121.09
  Q 109.05 121.14 109.02 120.60
  L 107.47 97.88
  Q 107.43 97.21 108.08 97.05
  L 111.07 96.30
  Q 111.53 96.18 111.64 96.65
  Q 112.48 100.30 113.78 104.62
  Q 114.30 106.35 114.14 104.57
  L 113.41 96.09
  Q 113.36 95.52 113.90 95.33
  L 115.62 94.72
  A 0.33 0.33 0.0 0 1 116.06 95.00
  L 118.63 120.13
  Q 118.69 120.70 118.12 120.70
  L 114.76 120.70
  Q 114.50 120.70 114.44 120.45
  L 111.92 110.41
  Q 111.59 109.11 111.58 110.45
  Z"
/>
<path fill="#ffffff" d="
  M 42.92 112.37
  Q 41.80 117.47 41.06 122.96
  Q 40.99 123.48 40.47 123.53
  L 39.05 123.68
  Q 38.41 123.74 38.35 123.11
  L 37.12 111.75
  Q 37.10 111.54 36.98 111.66
  L 36.97 111.67
  L 36.84 111.80
  Q 36.55 117.69 36.41 123.32
  Q 36.40 123.71 36.01 123.75
  L 34.00 123.96
  A 0.40 0.40 0.0 0 1 33.56 123.55
  L 34.60 97.92
  Q 34.61 97.66 34.87 97.70
  L 38.75 98.39
  Q 38.97 98.43 38.99 98.66
  L 40.09 109.45
  Q 40.20 110.48 40.39 109.46
  Q 41.23 105.00 41.81 99.87
  Q 41.88 99.25 42.50 99.36
  L 46.03 99.99
  A 0.79 0.79 0.0 0 1 46.68 100.79
  L 45.79 122.72
  Q 45.77 123.22 45.27 123.27
  L 43.27 123.47
  A 0.52 0.51 88.1 0 1 42.70 122.93
  L 43.12 112.39
  Q 43.17 111.26 42.92 112.37
  Z"
/>
<path fill="#ffffff" d="
  M 97.54 119.81
  Q 98.18 122.50 98.39 119.74
  L 99.87 100.13
  Q 99.91 99.59 100.43 99.46
  L 103.88 98.59
  Q 104.44 98.45 104.54 99.02
  L 108.48 120.90
  Q 108.52 121.12 108.30 121.12
  L 105.13 121.15
  Q 104.84 121.15 104.79 120.87
  L 103.90 115.92
  A 0.44 0.38 22.5 0 0 103.80 115.72
  Q 102.85 114.63 102.35 115.90
  Q 101.95 116.94 102.18 120.10
  Q 102.28 121.39 100.98 121.40
  L 95.00 121.46
  Q 93.63 121.47 93.62 120.10
  L 93.56 112.68
  Q 93.56 112.54 93.42 112.49
  L 93.05 112.34
  A 0.42 0.42 0.0 0 0 92.47 112.73
  L 92.54 121.14
  Q 92.55 121.65 92.04 121.65
  L 89.34 121.68
  Q 88.76 121.68 88.75 121.10
  L 88.60 103.98
  Q 88.60 103.51 89.03 103.29
  Q 90.53 102.54 93.14 101.90
  Q 95.67 101.28 96.35 102.93
  Q 96.68 103.73 96.81 105.67
  Q 97.00 108.60 95.53 110.08
  Q 95.09 110.52 95.63 110.82
  C 96.73 111.44 97.14 112.58 97.10 113.58
  Q 96.96 117.36 97.54 119.81
  Z
  M 92.7905 109.8195
  A 2.63 0.60 88.9 0 0 93.3399 107.1785
  A 2.63 0.60 88.9 0 0 92.6895 104.5605
  A 2.63 0.60 88.9 0 0 92.1401 107.2015
  A 2.63 0.60 88.9 0 0 92.7905 109.8195
  Z
  M 102.85 112.15
  Q 103.28 112.15 103.25 111.44
  Q 103.10 108.01 102.84 108.02
  Q 102.59 108.02 102.45 111.45
  Q 102.42 112.15 102.85 112.15
  Z"
/>
<path fill="#ffffff" d="
  M 50.65 117.59
  L 49.98 122.69
  A 0.34 0.34 0.0 0 1 49.68 122.99
  L 46.99 123.26
  A 0.34 0.34 0.0 0 1 46.62 122.88
  L 49.41 101.30
  A 0.34 0.34 0.0 0 1 49.81 101.01
  L 53.80 101.72
  A 0.34 0.34 0.0 0 1 54.08 102.02
  L 56.15 122.43
  A 0.34 0.34 0.0 0 1 55.82 122.80
  L 52.97 122.83
  A 0.34 0.34 0.0 0 1 52.63 122.52
  L 52.12 117.52
  A 0.34 0.34 0.0 0 0 51.75 117.21
  L 50.95 117.29
  A 0.34 0.34 0.0 0 0 50.65 117.59
  Z
  M 51.18 113.83
  A 0.33 0.33 0.0 0 0 51.82 113.99
  Q 52.35 112.58 51.87 110.81
  Q 51.67 110.09 51.57 110.83
  L 51.18 113.83
  Z"
/>
<path fill="#ffffff" d="
  M 175.04 103.57
  L 174.63 102.41
  A 0.02 0.02 0.0 0 1 174.66 102.39
  Q 175.11 102.96 175.11 103.55
  A 0.04 0.03 -57.7 0 1 175.04 103.57
  Z"
/>
<path fill="#ffffff" d="
  M 60.43 106.76
  Q 60.21 107.46 60.55 108.88
  Q 60.72 109.58 61.60 110.73
  C 63.19 112.78 64.46 114.01 64.73 116.27
  C 64.95 118.04 65.07 121.28 62.82 122.17
  Q 58.70 123.80 56.85 120.85
  A 1.12 1.04 32.2 0 1 56.68 120.21
  L 56.87 115.45
  Q 56.90 114.61 57.75 114.64
  L 59.17 114.70
  A 0.92 0.92 0.0 0 1 60.05 115.66
  L 59.92 118.99
  Q 59.90 119.49 60.35 119.72
  Q 60.53 119.80 60.74 119.74
  Q 61.09 119.65 61.13 119.29
  Q 61.48 116.48 60.96 115.76
  Q 59.14 113.24 58.58 112.46
  C 56.66 109.77 56.58 107.71 57.30 104.72
  A 1.97 1.96 -89.7 0 1 58.78 103.25
  Q 60.91 102.78 63.07 104.03
  C 64.84 105.05 64.77 107.52 64.56 109.62
  Q 64.47 110.59 63.54 110.37
  L 62.22 110.07
  Q 61.28 109.86 61.39 108.94
  Q 61.58 107.40 61.46 106.79
  Q 61.08 104.72 60.43 106.76
  Z"
/>
<path fill="#ffffff" d="
  M 86.03 106.95
  L 86.16 121.34
  A 0.52 0.52 0.0 0 1 85.64 121.86
  L 82.91 121.89
  Q 82.44 121.89 82.44 121.42
  L 82.32 108.13
  Q 82.32 107.64 81.83 107.61
  Q 81.54 107.59 81.05 107.77
  Q 80.57 107.94 80.37 107.48
  Q 80.22 107.12 80.40 106.21
  Q 80.52 105.65 81.07 105.49
  L 87.28 103.73
  Q 87.86 103.56 87.91 104.16
  Q 88.06 106.07 86.58 106.31
  Q 86.02 106.39 86.03 106.95
  Z"
/>
<path fill="#ffffff" d="
  M 175.81 105.19
  Q 175.84 105.12 175.86 105.05
  Q 175.88 104.94 175.91 105.04
  Q 176.00 105.35 176.08 105.66
  A 0.13 0.09 -72.6 0 1 175.90 105.79
  Q 175.84 105.67 175.75 105.60
  Q 175.63 105.50 175.81 105.19
  Z"
/>
<path fill="#ffffff" d="
  M 69.18 107.74
  A 3.22 1.65 53.6 0 0 69.70 110.96
  Q 70.44 112.08 72.65 114.51
  C 73.92 115.90 74.11 120.48 72.22 121.44
  Q 69.85 122.64 67.18 121.95
  A 2.17 2.17 0.0 0 1 65.54 119.86
  L 65.50 115.75
  A 0.72 0.71 4.7 0 1 66.34 115.04
  L 68.13 115.36
  Q 68.71 115.46 68.72 116.05
  L 68.74 119.20
  A 0.54 0.54 0.0 0 0 69.38 119.72
  Q 69.79 119.65 69.88 119.23
  C 70.93 114.66 65.65 113.71 65.58 109.72
  Q 65.54 107.59 65.80 106.60
  A 2.19 2.18 8.5 0 1 67.99 104.99
  Q 74.27 105.19 73.16 111.05
  Q 73.06 111.60 72.50 111.51
  L 70.64 111.17
  Q 70.10 111.08 70.09 110.53
  L 70.04 108.02
  A 0.49 0.46 82.3 0 0 69.46 107.54
  Q 69.33 107.58 69.18 107.74
  Z"
/>
<path fill="#ffffff" d="
  M 176.92 107.24
  Q 177.12 107.56 177.18 107.91
  Q 177.42 109.08 176.96 107.98
  Q 176.80 107.58 176.88 107.12
  Q 176.87 107.12 176.88 107.12
  Q 176.89 107.19 176.92 107.24
  Z"
/>
<path fill="#ffffff" d="
  M 152.73 153.54
  C 151.24 154.55 151.34 155.07 150.82 156.41
  Q 150.62 156.95 150.05 156.82
  Q 141.17 154.79 130.68 154.61
  A 0.33 0.33 0.0 0 1 130.42 154.09
  L 130.66 153.75
  Q 131.03 153.24 131.66 153.21
  Q 139.84 152.82 148.01 152.17
  Q 153.02 151.77 156.32 150.41
  Q 156.71 150.25 156.85 150.64
  L 156.93 150.89
  Q 156.99 151.03 156.85 151.10
  Q 154.72 152.18 152.73 153.54
  Z"
/>
<path fill="#ffffff" d="
  M 151.18 172.18
  C 154.87 169.51 156.79 166.22 156.45 161.48
  Q 156.22 158.31 156.13 156.29
  A 0.92 0.91 -16.5 0 1 156.59 155.45
  L 156.82 155.32
  A 0.29 0.29 0.0 0 1 157.25 155.48
  C 157.73 156.95 158.09 158.58 158.19 160.10
  Q 158.50 165.10 160.15 169.86
  Q 160.30 170.29 160.20 171.30
  C 160.02 173.23 157.34 174.62 155.75 174.81
  Q 152.10 175.26 152.05 175.27
  Q 146.54 176.31 144.21 176.10
  Q 143.67 176.05 144.07 175.68
  Q 144.79 175.03 147.73 174.03
  Q 149.42 173.45 151.18 172.18
  Z"
/>
<path fill="#ffffff" d="
  M 32.78 169.28
  Q 32.80 169.61 33.06 169.95
  Q 33.68 170.76 33.58 171.00
  A 1.27 1.10 49.9 0 1 31.39 170.66
  Q 29.70 165.84 28.34 160.52
  C 27.30 156.46 30.65 155.76 33.68 156.14
  C 38.20 156.69 41.57 157.05 46.74 157.31
  Q 50.60 157.51 52.74 157.93
  Q 53.23 158.03 53.33 158.52
  Q 54.38 163.73 56.95 170.04
  Q 57.46 171.30 57.35 172.31
  Q 57.22 173.57 56.54 172.40
  Q 56.30 171.98 56.26 170.68
  Q 56.23 169.42 55.36 170.34
  C 54.35 171.39 53.87 171.98 52.72 172.38
  Q 47.55 174.15 42.97 171.11
  A 0.93 0.92 50.0 0 0 42.09 171.03
  Q 37.18 173.10 33.14 169.12
  Q 32.76 168.74 32.78 169.28
  Z
  M 35.56 157.91
  A 0.13 0.13 0.0 0 0 35.56 157.66
  Q 34.12 157.22 31.76 157.46
  Q 31.16 157.52 31.22 158.12
  L 31.48 160.66
  Q 31.55 161.35 31.95 160.78
  Q 33.43 158.67 35.56 157.91
  Z
  M 42.42 158.16
  Q 41.94 158.12 41.87 158.33
  A 0.28 0.28 0.0 0 0 42.24 158.68
  Q 42.54 158.57 42.56 158.32
  A 0.15 0.15 0.0 0 0 42.42 158.16
  Z
  M 41.79 160.73
  L 41.09 159.53
  Q 40.83 159.07 40.32 158.93
  C 33.70 157.09 29.81 163.18 34.35 168.32
  Q 38.23 172.73 41.98 169.12
  Q 42.39 168.73 42.79 169.12
  Q 47.76 173.93 53.71 170.16
  A 2.64 2.64 0.0 0 0 54.78 167.05
  L 52.09 159.50
  Q 51.84 158.82 51.12 158.82
  L 44.57 158.82
  A 1.22 1.20 17.4 0 0 43.58 159.33
  L 42.56 160.77
  Q 42.15 161.35 41.79 160.73
  Z"
/>
<path fill="#ffffff" d="
  M 108.80 169.91
  Q 108.80 170.01 108.86 170.10
  Q 108.87 170.13 108.84 170.12
  L 108.83 170.11
  Q 108.82 170.11 108.81 170.10
  Q 105.20 163.09 97.96 161.32
  Q 97.09 161.11 90.53 160.25
  Q 86.68 159.74 82.97 159.41
  A 0.41 0.41 0.0 0 1 82.76 158.67
  L 83.38 158.23
  A 1.46 1.44 30.7 0 1 84.43 157.97
  C 90.69 158.86 98.88 158.46 102.98 158.68
  Q 104.75 158.77 105.71 159.69
  C 108.02 161.91 108.69 166.87 108.80 169.91
  Z"
/>
<path fill="#ffffff" d="
  M 115.59 173.84
  Q 115.65 174.02 115.53 174.28
  A 0.52 0.52 0.0 0 1 114.81 174.50
  Q 113.13 173.55 112.52 171.80
  Q 109.87 164.18 108.69 160.18
  Q 108.38 159.14 109.47 159.13
  L 133.16 158.92
  A 2.51 2.51 0.0 0 1 135.56 160.65
  Q 137.71 167.19 139.35 171.97
  Q 139.66 172.87 139.19 173.92
  Q 138.94 174.47 138.63 173.95
  Q 138.07 173.04 137.98 171.86
  Q 137.91 170.98 137.34 171.66
  C 134.20 175.42 129.51 174.90 125.41 173.06
  Q 124.92 172.84 124.50 173.18
  Q 121.45 175.62 116.15 173.47
  Q 115.38 173.15 115.59 173.84
  Z
  M 115.99 160.84
  Q 116.54 160.53 115.94 160.34
  Q 114.63 159.92 113.02 160.15
  Q 112.53 160.22 112.61 160.70
  L 112.85 162.24
  Q 112.91 162.62 113.24 162.43
  L 115.99 160.84
  Z
  M 121.46 161.03
  Q 122.02 162.09 122.96 162.01
  Q 123.27 161.98 123.43 161.78
  Q 123.67 161.47 123.75 161.38
  Q 124.26 160.73 123.44 160.62
  L 121.37 160.35
  A 0.29 0.29 0.0 0 0 121.08 160.76
  Q 121.19 160.98 121.46 161.03
  Z
  M 125.56 170.73
  Q 125.12 170.48 125.35 170.93
  Q 125.79 171.79 126.79 172.21
  C 128.79 173.05 132.42 173.81 134.28 172.47
  Q 135.80 171.37 136.51 169.58
  Q 136.67 169.16 136.55 168.72
  L 134.44 161.30
  A 1.21 1.20 85.5 0 0 133.44 160.44
  Q 129.49 159.90 126.18 161.16
  C 124.92 161.64 124.17 162.78 123.03 164.10
  Q 122.71 164.48 122.92 164.93
  C 123.92 167.02 124.05 170.72 121.44 171.63
  Q 119.40 172.35 118.55 172.49
  Q 117.09 172.73 118.54 173.05
  Q 122.55 173.93 124.85 170.62
  Q 125.15 170.20 124.96 169.71
  C 124.57 168.69 124.03 167.82 124.21 166.56
  Q 124.97 161.15 130.87 161.90
  Q 132.02 162.04 133.18 162.91
  C 134.59 163.97 134.54 165.38 135.10 166.85
  Q 135.46 167.80 135.15 168.78
  Q 133.99 172.45 129.40 172.12
  Q 127.89 172.02 125.56 170.73
  Z
  M 121.44 163.21
  A 0.23 0.23 0.0 0 0 121.73 162.87
  C 119.56 160.27 115.54 161.65 113.81 164.24
  Q 112.82 165.72 113.47 167.85
  Q 114.14 170.03 115.33 171.77
  A 0.33 0.32 67.6 0 0 115.66 171.91
  L 116.10 171.83
  A 0.22 0.22 0.0 0 0 116.23 171.47
  Q 114.46 169.43 114.52 166.97
  C 114.61 162.77 117.48 160.82 121.44 163.21
  Z
  M 133.4473 169.6778
  A 4.45 3.95 35.4 0 0 132.1082 163.8802
  A 4.45 3.95 35.4 0 0 126.1927 164.5222
  A 4.45 3.95 35.4 0 0 127.5318 170.3198
  A 4.45 3.95 35.4 0 0 133.4473 169.6778
  Z
  M 121.20 169.93
  Q 121.90 169.95 122.11 169.27
  C 122.85 166.82 121.41 163.81 118.68 163.54
  Q 116.88 163.36 115.96 165.12
  Q 115.72 165.58 115.81 166.09
  Q 116.44 169.79 121.20 169.93
  Z
  M 117.48 170.04
  C 117.17 169.81 117.00 169.51 116.68 169.32
  Q 116.02 168.91 116.34 169.62
  Q 116.74 170.51 117.27 170.74
  Q 118.04 171.07 117.74 170.31
  Q 117.69 170.19 117.48 170.04
  Z"
/>
<path fill="#ffffff" d="
  M 39.7534 169.7645
  A 5.35 4.07 68.7 0 1 34.0180 166.2584
  A 5.35 4.07 68.7 0 1 35.8666 159.7955
  A 5.35 4.07 68.7 0 1 41.6020 163.3016
  A 5.35 4.07 68.7 0 1 39.7534 169.7645
  Z
  M 38.84 165.96
  A 0.62 0.61 25.0 0 1 39.21 166.96
  Q 38.34 168.00 37.05 167.56
  Q 36.14 167.26 36.53 167.88
  Q 36.60 167.99 37.01 168.43
  Q 37.39 168.84 37.95 168.78
  C 40.20 168.52 41.63 166.25 40.54 164.18
  Q 39.89 162.95 38.63 161.75
  Q 37.61 160.77 36.33 161.38
  L 35.69 161.68
  Q 34.34 162.32 35.57 163.16
  Q 36.56 163.85 37.13 165.20
  Q 37.35 165.70 37.88 165.79
  L 38.84 165.96
  Z"
/>
<path fill="#ffffff" d="
  M 50.0124 170.4439
  A 5.66 4.65 67.1 0 1 43.5265 167.0394
  A 5.66 4.65 67.1 0 1 45.6076 160.0161
  A 5.66 4.65 67.1 0 1 52.0935 163.4206
  A 5.66 4.65 67.1 0 1 50.0124 170.4439
  Z
  M 49.95 168.36
  Q 46.71 169.25 45.03 166.18
  Q 45.02 166.16 45.01 166.18
  L 44.83 166.43
  Q 44.73 166.57 44.79 166.74
  Q 46.24 170.33 49.22 169.23
  Q 52.41 168.07 51.21 164.62
  Q 49.86 160.75 46.21 161.11
  Q 44.99 161.24 44.58 162.94
  Q 44.46 163.47 44.96 163.69
  Q 46.41 164.32 47.39 166.29
  Q 47.62 166.74 48.12 166.81
  Q 48.46 166.86 49.04 166.86
  Q 49.64 166.87 49.85 167.03
  Q 50.20 167.30 50.32 167.68
  A 0.54 0.54 0.0 0 1 49.95 168.36
  Z"
/>
<path fill="#ffffff" d="
  M 68.56 170.05
  Q 72.41 166.63 73.41 162.06
  Q 74.03 159.20 74.94 161.98
  Q 76.79 167.63 73.29 173.16
  Q 73.02 173.59 72.53 173.72
  Q 67.31 175.12 64.05 174.85
  Q 60.12 174.52 63.79 173.10
  Q 66.16 172.18 68.56 170.05
  Z"
/>
<path fill="#ffffff" d="
  M 130.03 168.42
  Q 130.43 168.37 130.91 167.96
  Q 131.59 167.38 132.24 167.99
  L 132.49 168.23
  A 0.93 0.92 43.0 0 1 132.54 169.53
  C 130.84 171.40 127.33 169.75 126.61 167.99
  Q 125.84 166.13 127.79 167.05
  Q 128.13 167.22 129.13 168.06
  Q 129.62 168.48 130.03 168.42
  Z"
/>
<path fill="#ffffff" d="
  M 85.68 174.90
  C 87.26 176.49 88.65 177.47 90.56 177.98
  Q 90.97 178.09 90.80 178.48
  Q 90.05 180.24 88.29 181.23
  A 0.60 0.59 -30.7 0 1 87.50 181.03
  Q 85.76 178.36 84.85 175.40
  Q 84.26 173.48 85.68 174.90
  Z"
/>
</svg>
