<?xml version="1.0" encoding="UTF-8" standalone="no"?>
<svg xmlns="http://www.w3.org/2000/svg" version="1.2" baseProfile="tiny" viewBox="0.00 0.00 200.00 200.00">
<rect fill="#000000" x="-3.69" y="-11.66" transform="translate(98.78,38.29) rotate(0.6)" width="7.38" height="23.32" rx="3.56"/>
<rect fill="#000000" x="-3.58" y="-11.61" transform="translate(67.19,44.39) rotate(-31.2)" width="7.16" height="23.22" rx="3.49"/>
<rect fill="#000000" x="-3.58" y="-11.60" transform="translate(129.39,44.39) rotate(31.3)" width="7.16" height="23.20" rx="3.49"/>
<rect fill="#000000" x="-11.65" y="-3.63" transform="translate(37.27,63.53) rotate(30.1)" width="23.30" height="7.26" rx="3.54"/>
<rect fill="#000000" x="-11.68" y="-3.66" transform="translate(160.52,63.76) rotate(-30.3)" width="23.36" height="7.32" rx="3.57"/>
<circle fill="#000000" cx="100.20" cy="96.78" r="25.76"/>
<circle fill="#000000" cx="39.89" cy="106.11" r="20.26"/>
<circle fill="#000000" cx="160.58" cy="106.20" r="20.17"/>
<path fill="#000000" d="
  M 54.56 175.08
  A 0.55 0.55 0.0 0 1 54.01 174.53
  L 53.97 154.72
  A 23.09 22.94 -0.1 0 1 77.02 131.74
  L 123.34 131.66
  A 23.09 22.94 -0.1 0 1 146.47 154.56
  L 146.51 174.37
  A 0.55 0.55 0.0 0 1 145.96 174.92
  L 54.56 175.08
  Z"
/>
<path fill="#000000" d="
  M 55.75 134.23
  Q 47.05 142.51 46.85 153.76
  Q 46.78 157.61 46.80 167.52
  A 0.30 0.30 0.0 0 1 46.50 167.82
  L 4.26 167.82
  Q 3.71 167.82 3.70 167.27
  Q 3.64 163.50 3.53 156.45
  Q 3.42 149.01 4.56 145.68
  Q 7.10 138.26 14.59 135.08
  Q 18.06 133.61 25.63 133.74
  Q 31.27 133.85 55.58 133.80
  Q 56.20 133.80 55.75 134.23
  Z"
/>
<path fill="#000000" d="
  M 144.89 134.23
  Q 144.44 133.80 145.06 133.80
  Q 169.35 133.86 174.99 133.75
  Q 182.55 133.63 186.02 135.10
  Q 193.50 138.28 196.04 145.69
  Q 197.17 149.02 197.06 156.45
  Q 196.95 163.50 196.89 167.27
  Q 196.88 167.81 196.33 167.81
  L 154.12 167.80
  A 0.30 0.30 0.0 0 1 153.82 167.50
  Q 153.84 157.60 153.78 153.75
  Q 153.58 142.51 144.89 134.23
  Z"
/>
</svg>
