<svg width="616" height="139" viewBox="0 0 616 139" fill="none" xmlns="http://www.w3.org/2000/svg">
<path d="M93.3727 1.23183C91.6482 0.369549 89.6772 0 87.7063 0C84.8731 0 81.9167 0.985464 79.453 2.95639L53.5846 24.1439L61.0988 30.1798L85.3658 10.3474C86.1049 9.73146 86.844 9.48509 87.7063 9.48509C88.3222 9.48509 88.8149 9.60827 89.3077 9.85464C89.8004 10.101 90.2931 10.4706 90.6627 10.8401C91.1554 11.456 91.4018 12.1951 91.4018 13.1806V85.1195C91.4018 87.7063 90.4163 89.8004 88.5686 91.525C76.9894 101.996 66.1493 114.93 54.9396 126.509C53.9542 127.494 52.7223 128.11 51.3673 128.11C50.0123 128.11 48.7805 127.618 47.6718 126.632L12.3183 91.525C10.4706 89.8004 9.48509 87.5831 9.48509 85.1195C9.48509 60.3597 9.48509 37.8172 9.48509 13.1806C9.48509 12.1951 9.73146 11.456 10.2242 10.8401C10.5937 10.3474 11.0865 10.101 11.5792 9.85464C12.0719 9.60827 12.6878 9.48509 13.1806 9.48509C13.9197 9.48509 14.782 9.73146 15.5211 10.3474L47.4255 36.4622C48.6573 37.5708 50.2587 38.8026 51.86 40.0345C56.0483 43.2372 60.4829 46.8095 63.4392 50.0123C64.0552 50.7514 64.6711 51.4905 65.287 52.3528C68.4897 56.7874 69.8448 61.5915 69.352 66.2725C68.8593 70.9534 66.642 75.5112 62.7001 79.2067C61.9611 79.8226 61.2219 80.4385 60.4829 81.0544C57.0337 83.5181 52.9687 84.9963 48.4109 85.8585C45.8241 86.3513 43.1141 86.7208 40.2808 86.844C39.5417 86.844 38.9258 86.7208 38.4331 86.2281C37.9404 85.7354 37.694 85.1195 37.694 84.5035V41.2663C37.694 35.1072 28.2089 35.1072 28.2089 41.2663C28.2089 57.6496 28.2089 74.1562 28.2089 90.5395C28.2089 92.2641 28.8248 93.6191 29.9335 94.8509C31.1653 96.0827 32.5203 96.5755 34.2449 96.5755C39.5417 96.5755 44.8386 96.3291 50.1355 95.2205C55.9251 94.1118 61.3451 92.1409 65.9029 88.6918C67.0116 87.8295 67.997 86.9672 68.9825 86.1049C74.7721 80.808 77.9748 74.1562 78.5908 67.1347C79.2067 60.2365 77.3589 52.9687 72.678 46.6864C71.9389 45.7009 71.0766 44.5922 70.0911 43.6068C66.5188 39.7881 61.961 36.2158 57.6496 32.7667L50.505 26.7307L21.4338 2.95639C18.9702 0.985464 16.0138 0 13.1806 0C11.2097 0 9.36191 0.492732 7.51416 1.23183C5.7896 2.09411 4.18822 3.32594 2.95639 4.80414C1.10865 7.02143 0 9.85464 0 13.1806V89.3077C0 91.8945 0.985464 93.9886 2.83321 95.7132C16.0138 107.662 30.0567 123.183 43.2372 135.255C45.5777 137.349 48.4109 138.458 51.3673 138.458C54.3237 138.458 57.1569 137.349 59.4974 135.255L97.9305 95.7132C99.655 93.8654 100.764 91.7713 100.764 89.3077V13.1806C100.764 9.97782 99.655 7.14461 97.8073 4.92732C96.6987 3.32594 95.0973 2.09411 93.3727 1.23183Z" fill="url(#ogrenqogewqtnrio)"/>
<path d="M145.962 39.5349V98.5237H153.084V52.0068L172.524 98.5237H178.977L198.417 52.0068V98.5237H205.539V39.5349H196.489L175.96 88.4956L155.179 39.5349H145.962Z" fill="gray"/>
<path d="M211.964 39.4506L234.086 76.6978V98.5237H241.376V76.6978L263.497 39.4506H255.286L237.773 68.7765L220.511 39.4506H211.964Z" fill="gray"/>
<path d="M269.263 39.5349V98.5237H289.625C295.491 98.5237 300.602 97.3439 305.127 94.8158C309.652 92.2877 313.087 88.8327 315.517 84.3664C317.947 79.9001 319.204 74.7596 319.204 69.0293C319.204 63.299 317.947 58.2428 315.517 53.7765C313.087 49.3102 309.652 45.8551 305.127 43.327C300.602 40.799 295.491 39.5349 289.625 39.5349H269.263ZM289.625 87.99H281.832V50.0686H289.625C294.904 50.0686 299.01 51.8383 301.943 55.2933C304.876 58.7484 306.384 63.299 306.384 69.0293C306.384 74.7596 304.876 79.3945 301.943 82.8495C299.01 86.3046 294.904 87.99 289.625 87.99Z" fill="gray"/>
<path d="M326.953 39.5349V98.5237H367.258V87.6529H339.522V74.0012H361.308V63.636H339.522V50.4057H366.336V39.5349H326.953Z" fill="gray"/>
<path d="M384.795 79.3102L372.477 79.1417C372.477 82.9338 373.566 86.3046 375.661 89.3383C377.672 92.372 380.521 94.8158 384.208 96.5012C387.895 98.1866 392.085 99.0293 396.777 99.0293C401.135 99.0293 404.989 98.2709 408.508 96.5855C412.028 94.9844 414.709 92.7933 416.72 89.9282C418.647 87.063 419.653 83.8608 419.653 80.2372C419.653 76.5293 418.815 73.5799 417.139 71.3888C415.463 69.1978 413.368 67.5124 410.687 66.4169C408.006 65.3214 404.654 64.3945 400.799 63.636C396.945 62.9619 394.096 62.2877 392.252 61.7821C390.409 61.2765 388.984 60.5181 387.979 59.6754C386.973 58.8327 386.471 57.5686 386.471 55.9675C386.471 53.7765 387.309 52.0911 388.984 50.9113C390.66 49.7315 392.839 49.1417 395.688 49.1417C398.705 49.1417 401.135 49.9844 402.978 51.5012C404.821 53.0181 405.827 55.0405 406.162 57.5686H418.48C418.396 54.0293 417.39 50.9113 415.379 48.0462C413.368 45.2653 410.687 43.0742 407.251 41.4731C403.816 39.872 399.961 39.0293 395.688 39.0293C391.498 39.0293 387.728 39.872 384.376 41.3888C381.024 42.9057 378.427 45.0124 376.583 47.7091C374.74 50.4057 373.818 53.5237 373.818 56.8945C373.818 60.6866 374.572 63.7203 376.248 65.9956C377.924 68.2709 380.019 69.9563 382.7 71.136C385.298 72.3158 388.566 73.2428 392.42 73.9169C396.275 74.7596 399.207 75.4338 401.051 75.9394C402.894 76.445 404.402 77.2035 405.408 78.1304C406.414 79.0574 407 80.3214 407 81.8383C407 84.1136 405.995 85.8832 404.151 87.1473C402.308 88.4113 399.878 89.0012 396.945 89.0012C393.342 89.0012 390.493 88.1585 388.314 86.3888C386.136 84.6192 384.962 82.2596 384.795 79.3102Z" fill="gray"/>
<path d="M427.194 39.5349V98.5237H439.763V39.5349H427.194Z" fill="gray"/>
<path d="M450.871 53.2709C448.524 57.8214 447.351 63.0461 447.351 69.0293C447.351 75.0124 448.441 80.2372 450.787 84.7877C453.133 89.3383 456.401 92.8776 460.591 95.3214C464.78 97.8495 469.724 99.0293 475.254 99.0293C479.109 99.0293 482.461 98.3551 485.393 96.8383C488.242 95.4057 490.589 93.5518 492.348 91.1922L493.689 98.5237H502.403V65.7428H476.176V75.7709H490.756V76.5293C490.17 80.4057 488.494 83.3551 485.729 85.3776C482.88 87.4001 479.695 88.3271 476.092 88.3271C471.065 88.3271 467.21 86.5574 464.361 83.0181C461.512 79.4787 460.172 74.8439 460.172 69.0293C460.172 65.3214 460.758 61.9506 462.099 59.0012C463.356 56.136 465.199 53.8608 467.629 52.1754C469.975 50.5742 472.824 49.7315 476.092 49.7315C479.612 49.7315 482.544 50.7428 484.891 52.681C487.237 54.6192 488.745 57.2315 489.583 60.5181H501.985C501.482 56.3046 500.057 52.5967 497.795 49.3102C495.532 46.1079 492.6 43.5799 488.913 41.7259C485.226 39.9563 481.036 39.0293 476.428 39.0293C470.478 39.0293 465.283 40.2933 460.926 42.7372C456.568 45.2653 453.217 48.7203 450.871 53.2709Z" fill="gray"/>
<path d="M512.461 98.5237H524.778V61.3608L549.665 98.5237H561.145V39.5349H548.743V76.6978L523.857 39.5349H512.461V98.5237Z" fill="gray"/>
<path d="M581.104 79.3102L568.786 79.1417C568.786 82.9338 569.876 86.3046 571.97 89.3383C573.981 92.372 576.83 94.8158 580.517 96.5012C584.204 98.1866 588.394 99.0293 593.086 99.0293C597.444 99.0293 601.298 98.2709 604.817 96.5855C608.337 94.9844 611.018 92.7933 613.029 89.9282C614.956 87.063 615.962 83.8608 615.962 80.2372C615.962 76.5293 615.124 73.5799 613.448 71.3888C611.772 69.1978 609.677 67.5124 606.996 66.4169C604.315 65.3214 600.963 64.3945 597.108 63.636C593.254 62.9619 590.405 62.2877 588.561 61.7821C586.718 61.2765 585.294 60.5181 584.288 59.6754C583.282 58.8327 582.78 57.5686 582.78 55.9675C582.78 53.7765 583.618 52.0911 585.294 50.9113C586.969 49.7315 589.148 49.1417 591.997 49.1417C595.014 49.1417 597.444 49.9844 599.287 51.5012C601.13 53.0181 602.136 55.0405 602.471 57.5686H614.789C614.705 54.0293 613.7 50.9113 611.688 48.0462C609.677 45.2653 606.996 43.0742 603.56 41.4731C600.125 39.872 596.27 39.0293 591.997 39.0293C587.807 39.0293 584.037 39.872 580.685 41.3888C577.333 42.9057 574.736 45.0124 572.892 47.7091C571.049 50.4057 570.127 53.5237 570.127 56.8945C570.127 60.6866 570.881 63.7203 572.557 65.9956C574.233 68.2709 576.328 69.9563 579.009 71.136C581.607 72.3158 584.875 73.2428 588.729 73.9169C592.584 74.7596 595.516 75.4338 597.36 75.9394C599.203 76.445 600.712 77.2035 601.717 78.1304C602.723 79.0574 603.309 80.3214 603.309 81.8383C603.309 84.1136 602.304 85.8832 600.46 87.1473C598.617 88.4113 596.187 89.0012 593.254 89.0012C589.651 89.0012 586.802 88.1585 584.623 86.3888C582.445 84.6192 581.271 82.2596 581.104 79.3102Z" fill="gray"/>
<defs>
<linearGradient id="ogrenqogewqtnrio" x1="-13.086" y1="160.593" x2="100.039" y2="-35.3443" gradientUnits="userSpaceOnUse">
<stop stop-color="gray"/>
<stop offset="0.1522" stop-color="gray"/>
<stop offset="0.3692" stop-color="gray"/>
<stop offset="0.6249" stop-color="gray"/>
<stop offset="0.9082" stop-color="gray"/>
<stop offset="1" stop-color="gray"/>
</linearGradient>
</defs>
</svg>
