<?xml version="1.0" encoding="UTF-8" standalone="no"?>
<svg xmlns="http://www.w3.org/2000/svg" version="1.2" baseProfile="tiny" viewBox="0.00 0.00 512.00 512.00">
<path fill="#ffffff" d="
  M 378.62 0.00
  Q 388.22 0.63 395.00 1.44
  C 429.17 5.56 460.55 20.80 483.59 46.35
  Q 489.57 52.98 491.90 56.60
  C 496.56 63.80 498.82 73.60 499.51 81.76
  Q 501.12 100.60 498.37 120.63
  Q 494.62 147.90 486.56 174.56
  Q 465.41 244.58 425.45 306.06
  A 0.61 0.61 0.0 0 0 425.65 306.92
  Q 431.58 310.39 439.06 310.80
  C 453.89 311.59 466.83 309.30 482.91 306.17
  C 489.65 304.85 499.34 305.43 502.10 312.48
  C 505.03 319.98 499.15 327.66 493.72 332.49
  Q 481.94 342.96 466.70 349.69
  Q 458.57 353.28 445.13 355.79
  C 431.10 358.42 415.46 359.44 401.96 356.58
  Q 400.38 356.25 398.90 355.77
  Q 398.33 355.58 398.27 356.18
  Q 394.33 391.37 388.61 433.28
  C 385.38 456.97 381.01 482.29 359.64 496.62
  Q 350.25 502.92 339.34 506.40
  Q 325.86 510.70 311.75 512.00
  L 304.11 512.00
  Q 290.05 511.11 278.87 503.91
  Q 270.87 498.75 264.72 490.08
  Q 257.16 479.43 253.47 466.19
  Q 251.79 460.14 250.48 446.82
  Q 249.23 434.10 248.67 421.76
  Q 247.38 393.23 247.69 362.36
  Q 247.70 361.73 247.22 362.14
  Q 229.81 377.35 206.92 379.35
  Q 191.53 380.70 175.06 376.51
  Q 165.61 374.10 158.08 368.24
  C 149.07 361.23 150.64 350.15 160.46 344.94
  Q 164.86 342.61 170.18 341.27
  Q 170.65 341.16 187.97 336.91
  C 194.11 335.40 199.98 333.35 204.26 328.76
  Q 207.25 325.55 213.71 317.19
  A 0.54 0.53 20.2 0 0 213.31 316.33
  Q 198.00 315.69 184.26 308.54
  Q 183.79 308.30 183.43 308.68
  Q 165.19 328.08 144.78 352.25
  Q 137.48 360.89 134.14 363.66
  Q 127.84 368.89 120.29 371.26
  C 102.00 377.00 85.61 362.31 75.98 348.50
  Q 64.90 332.59 56.71 313.82
  Q 45.61 288.38 37.39 261.74
  Q 21.04 208.77 11.92 154.90
  Q 10.00 143.53 9.47 135.06
  C 8.07 112.48 9.77 88.39 17.41 66.93
  Q 31.78 26.59 71.75 12.98
  C 97.17 4.32 126.99 5.39 153.75 10.33
  Q 179.71 15.13 202.46 23.48
  A 0.93 0.93 0.0 0 0 203.29 23.38
  Q 224.78 9.04 252.32 6.44
  C 269.51 4.82 287.61 6.24 304.39 10.19
  A 5.23 5.21 42.8 0 0 307.12 10.09
  Q 335.01 1.33 364.75 0.00
  L 378.62 0.00
  Z"
/>
<path fill="#336791" d="
  M 416.57 291.22
  L 414.53 289.19
  Q 413.99 288.65 414.39 287.99
  Q 425.49 269.46 426.06 247.24
  C 426.48 230.61 423.10 210.48 422.22 198.33
  C 421.18 183.79 424.46 167.30 426.20 154.04
  C 426.96 148.32 427.10 141.10 427.10 135.62
  Q 427.10 128.64 423.99 120.32
  Q 411.20 86.16 386.11 58.73
  Q 363.22 33.69 332.63 19.66
  Q 331.78 19.27 332.70 19.08
  C 359.44 13.61 387.99 13.41 414.44 20.82
  C 439.39 27.82 461.99 42.42 478.00 63.03
  C 482.58 68.93 484.40 76.41 485.02 83.77
  Q 486.38 100.01 483.62 118.63
  Q 479.12 148.95 469.55 178.56
  Q 450.15 238.56 417.04 291.17
  Q 416.83 291.49 416.57 291.22
  Z"
/>
<path fill="#336791" d="
  M 409.82 126.59
  C 386.07 124.12 356.06 126.21 348.03 153.56
  Q 344.89 164.24 346.65 177.18
  C 349.37 197.30 357.84 217.53 367.08 235.68
  Q 375.47 252.16 383.10 265.30
  Q 384.78 268.19 386.61 272.33
  Q 391.31 282.99 397.27 291.13
  Q 401.61 297.05 406.99 303.58
  A 0.38 0.38 0.0 0 1 406.79 304.19
  Q 386.81 309.05 384.94 329.96
  C 384.41 335.81 384.49 343.17 383.78 349.71
  Q 378.73 396.37 372.19 440.93
  Q 370.10 455.24 365.41 466.63
  C 360.47 478.66 350.25 486.43 337.84 490.86
  Q 325.57 495.24 313.32 496.59
  C 299.93 498.07 286.90 494.40 278.40 483.18
  Q 270.85 473.22 267.65 460.91
  Q 266.47 456.35 265.42 444.88
  Q 263.82 427.41 263.23 408.01
  Q 262.20 374.03 263.17 342.14
  Q 263.50 331.47 262.22 327.17
  C 258.67 315.25 249.93 306.18 237.55 304.43
  Q 234.38 303.98 230.69 304.68
  Q 230.16 304.78 230.26 304.25
  Q 230.59 302.42 231.47 299.74
  Q 233.83 292.54 236.71 284.90
  C 240.40 275.10 246.92 262.07 249.75 253.45
  Q 257.47 229.94 256.28 204.77
  Q 255.39 186.02 251.90 168.36
  C 249.85 157.97 248.21 150.76 242.65 143.12
  C 229.45 124.99 204.36 126.57 185.03 132.52
  Q 172.56 136.35 162.53 142.51
  A 0.33 0.32 76.8 0 1 162.04 142.20
  Q 163.44 124.37 167.97 106.25
  C 173.48 84.19 183.39 62.61 199.52 46.52
  C 221.72 24.37 251.60 18.25 282.30 21.71
  Q 337.51 27.93 375.45 69.50
  Q 398.14 94.36 410.14 126.17
  A 0.31 0.31 0.0 0 1 409.82 126.59
  Z"
/>
<path fill="#336791" d="
  M 170.92 300.01
  Q 149.66 322.84 130.22 346.22
  Q 127.18 349.86 122.97 353.16
  C 113.62 360.47 104.68 357.03 97.00 349.75
  Q 89.01 342.18 82.10 330.31
  Q 72.53 313.88 64.71 294.07
  Q 54.74 268.85 46.03 238.05
  Q 35.43 200.58 28.02 160.06
  Q 25.38 145.59 24.59 134.52
  Q 22.58 106.12 29.44 81.27
  C 36.36 56.19 53.26 37.00 77.72 28.46
  C 98.06 21.36 120.62 21.02 141.63 23.87
  Q 165.83 27.15 188.98 34.76
  A 0.17 0.17 0.0 0 1 189.05 35.04
  Q 175.41 48.91 166.66 66.41
  C 153.61 92.50 147.71 121.89 146.38 150.95
  Q 146.09 157.32 146.81 168.54
  Q 148.64 197.30 145.71 223.91
  Q 144.21 237.54 144.39 242.70
  Q 145.56 276.29 170.90 299.51
  Q 171.16 299.75 170.92 300.01
  Z"
/>
<path fill="#336791" d="
  M 404.18 274.07
  C 401.44 268.71 399.14 263.09 395.74 257.09
  Q 388.01 243.46 380.09 227.99
  C 372.31 212.79 364.76 195.05 361.81 177.54
  Q 360.11 167.43 362.28 158.84
  C 367.27 139.02 396.04 139.71 411.60 142.00
  Q 412.09 142.07 412.06 142.57
  Q 411.53 150.98 408.64 170.32
  Q 405.72 189.89 407.67 205.78
  Q 409.95 224.37 410.83 236.50
  Q 411.30 243.02 410.46 252.25
  Q 409.43 263.61 404.70 274.06
  Q 404.45 274.61 404.18 274.07
  Z"
/>
<path fill="#336791" d="
  M 215.13 301.32
  Q 207.78 301.04 202.07 299.42
  C 177.32 292.41 160.85 269.24 159.48 243.73
  Q 159.24 239.13 160.77 225.26
  Q 163.11 204.00 162.53 183.78
  Q 162.23 173.30 161.46 160.12
  Q 161.37 158.58 162.77 157.91
  Q 177.65 150.78 189.99 146.77
  C 198.93 143.86 211.50 141.99 220.25 144.97
  Q 227.63 147.49 231.86 154.21
  Q 234.40 158.27 236.33 167.57
  Q 239.53 183.01 240.72 197.99
  Q 242.11 215.65 239.79 230.05
  Q 237.32 245.35 232.64 255.88
  C 225.16 272.70 219.64 286.05 215.36 301.15
  A 0.24 0.24 0.0 0 1 215.13 301.32
  Z"
/>
<path fill="#ffffff" d="
  M 386.39 163.63
  C 381.65 164.35 374.32 161.70 372.34 156.53
  C 371.42 154.13 374.33 151.80 376.30 150.83
  Q 379.78 149.11 384.10 148.46
  Q 388.41 147.81 392.25 148.42
  C 394.41 148.77 397.88 150.13 397.71 152.70
  C 397.34 158.22 391.12 162.92 386.39 163.63
  Z"
/>
<path fill="#ffffff" d="
  M 215.77 152.27
  C 219.61 152.85 224.19 154.14 227.01 156.96
  C 230.69 160.62 227.74 164.56 224.43 166.90
  Q 218.91 170.79 213.12 169.92
  Q 207.33 169.06 203.19 163.71
  C 200.71 160.50 199.05 155.87 203.64 153.45
  C 207.16 151.58 211.92 151.69 215.77 152.27
  Z"
/>
<path fill="#336791" d="
  M 417.14 317.76
  C 427.55 325.15 443.43 326.05 456.64 325.11
  Q 470.20 324.15 482.68 321.48
  Q 483.87 321.22 482.94 322.01
  Q 466.68 335.81 446.95 340.10
  C 434.82 342.73 421.03 344.09 408.82 342.48
  Q 403.95 341.84 400.54 340.47
  A 0.97 0.94 6.3 0 1 399.95 339.75
  C 399.03 334.63 400.18 326.81 404.01 322.66
  C 406.79 319.64 410.80 318.61 415.18 317.43
  Q 416.26 317.13 417.14 317.76
  Z"
/>
<path fill="#336791" d="
  M 214.19 340.44
  Q 218.48 335.63 223.69 328.94
  Q 227.57 323.97 230.96 320.96
  C 234.89 317.46 241.01 320.65 243.81 323.93
  C 247.23 327.93 249.92 335.42 246.54 340.22
  C 230.39 363.16 204.75 368.84 178.65 361.83
  Q 173.68 360.49 169.36 357.97
  A 0.42 0.42 0.0 0 1 169.42 357.21
  Q 173.72 355.57 178.36 354.63
  Q 190.67 352.11 198.19 349.71
  Q 209.02 346.26 214.19 340.44
  Z"
/>
</svg>
