<?xml version="1.0" encoding="UTF-8" standalone="no"?>
<svg xmlns="http://www.w3.org/2000/svg" version="1.2" baseProfile="tiny" viewBox="0.00 0.00 320.00 260.00">

<path fill="#1d1d1d" d="
  M 215.44 49.15
  A 0.21 0.21 0.0 0 0 215.64 48.84
  Q 212.00 42.61 208.55 35.81
  Q 203.67 26.17 202.32 16.19
  A 0.63 0.62 -63.9 0 1 203.48 15.79
  L 226.36 55.41
  A 0.53 0.53 0.0 0 1 225.81 56.19
  C 217.27 54.82 208.33 53.84 200.19 55.08
  Q 198.63 55.32 197.98 54.95
  Q 197.35 54.60 196.15 53.82
  A 1.36 1.32 12.8 0 1 195.56 52.91
  C 195.26 50.94 197.29 49.51 199.10 49.28
  Q 207.02 48.23 215.44 49.15
  Z"
/>
<path fill="#1d1d1d" d="
  M 157.71 25.22
  A 1.06 1.06 0.0 0 1 158.86 24.27
  L 165.47 24.88
  A 6.02 2.88 5.3 0 1 171.20 28.30
  L 171.18 28.50
  A 6.02 2.88 5.3 0 1 164.92 30.81
  L 158.31 30.20
  A 1.06 1.06 0.0 0 1 157.35 29.05
  L 157.71 25.22
  Z"
/>
<path fill="#1d1d1d" d="
  M 122.99 30.51
  A 1.22 1.22 0.0 0 1 123.96 29.08
  L 131.73 27.60
  A 5.61 2.77 -10.8 0 1 137.76 29.27
  L 137.84 29.65
  A 5.61 2.77 -10.8 0 1 132.84 33.42
  L 125.07 34.90
  A 1.22 1.22 0.0 0 1 123.65 33.93
  L 122.99 30.51
  Z"
/>
<path fill="#1d1d1d" d="
  M 184.26 32.56
  A 0.96 0.96 0.0 0 1 185.52 32.05
  L 192.04 34.82
  A 7.26 2.94 23.0 0 1 197.57 40.36
  L 197.53 40.46
  A 7.26 2.94 23.0 0 1 189.70 40.32
  L 183.18 37.56
  A 0.96 0.96 0.0 0 1 182.67 36.30
  L 184.26 32.56
  Z"
/>
<path fill="#1d1d1d" d="
  M 98.04 48.45
  Q 97.03 49.25 96.12 48.34
  L 93.78 45.99
  A 1.15 1.15 0.0 0 1 93.83 44.31
  Q 98.07 40.63 103.20 38.54
  Q 105.78 37.49 108.88 38.04
  A 1.48 1.48 0.0 0 1 110.02 39.96
  Q 109.36 41.97 107.22 42.99
  Q 101.36 45.80 98.04 48.45
  Z"
/>
<path fill="#1d1d1d" d="
  M 191.30 82.62
  L 191.67 80.73
  Q 191.79 80.12 192.36 79.88
  Q 237.96 60.72 252.11 54.70
  Q 260.12 51.29 265.41 49.58
  Q 274.71 46.57 279.17 45.64
  Q 281.12 45.22 282.73 46.56
  Q 283.64 47.31 284.51 49.35
  Q 290.09 62.39 297.20 79.30
  Q 299.36 84.45 302.92 98.11
  C 303.14 98.96 303.55 99.44 303.96 100.15
  A 2.19 2.18 59.4 0 1 303.20 103.13
  C 295.89 107.55 288.13 111.38 280.51 114.59
  Q 250.63 127.18 218.13 140.88
  A 3.65 3.64 -25.6 0 1 213.50 139.25
  Q 210.34 133.35 207.32 127.54
  Q 204.72 122.54 201.72 115.56
  Q 198.96 109.17 190.10 88.41
  Q 188.75 85.24 190.83 83.43
  Q 191.21 83.10 191.30 82.62
  Z"
/>
<path fill="#f1f2f4" d="
  M 248.18 93.08
  C 247.66 93.80 247.69 94.03 247.49 94.74
  Q 247.32 95.33 246.75 95.12
  Q 236.37 91.39 226.49 89.03
  Q 212.73 85.74 200.68 83.44
  Q 199.60 83.24 200.62 82.81
  Q 219.10 75.05 257.41 58.86
  C 263.50 56.29 269.90 53.18 275.76 49.93
  Q 280.56 47.27 277.18 51.60
  C 272.24 57.95 268.86 62.26 264.94 68.36
  Q 256.50 81.50 248.18 93.08
  Z"
/>
<path fill="#f1f2f4" d="
  M 263.33 81.71
  C 271.36 69.27 275.29 63.54 279.75 54.22
  A 0.28 0.28 0.0 0 1 280.26 54.23
  Q 286.07 68.49 291.34 80.24
  Q 295.23 88.91 300.01 97.02
  A 0.24 0.23 -0.5 0 1 299.69 97.34
  Q 290.99 92.59 284.90 90.19
  Q 271.55 84.92 263.46 82.10
  Q 263.15 81.99 263.33 81.71
  Z"
/>
<path fill="#1d1d1d" d="
  M 69.90 69.42
  A 1.33 1.33 0.0 0 1 69.77 67.54
  L 73.58 63.13
  A 6.36 2.89 -49.2 0 1 79.92 60.20
  L 80.06 60.32
  A 6.36 2.89 -49.2 0 1 78.09 67.02
  L 74.28 71.44
  A 1.33 1.33 0.0 0 1 72.40 71.58
  L 69.90 69.42
  Z"
/>
<path fill="#1d1d1d" d="
  M 58.89 100.60
  Q 58.56 101.89 57.25 101.63
  L 54.18 101.03
  A 1.27 1.27 0.0 0 1 53.19 99.48
  Q 55.20 91.22 57.14 87.63
  Q 58.84 84.47 62.09 82.88
  A 1.03 1.03 0.0 0 1 63.56 83.64
  Q 63.96 86.19 63.06 88.38
  Q 60.36 94.93 58.89 100.60
  Z"
/>
<path fill="#f1f2f4" d="
  M 251.50 97.55
  A 1.48 1.47 17.4 0 0 252.71 96.92
  L 259.35 87.48
  A 0.86 0.86 0.0 0 1 260.35 87.17
  Q 269.77 90.63 282.88 95.61
  Q 285.85 96.74 301.75 101.10
  Q 302.23 101.23 301.75 101.36
  C 293.85 103.53 287.74 105.14 281.23 107.89
  Q 231.41 128.90 220.94 133.30
  Q 219.84 133.77 220.35 132.69
  Q 228.61 114.96 233.59 96.65
  Q 233.73 96.14 234.25 96.21
  Q 243.39 97.55 251.50 97.55
  Z"
/>
<path fill="#f1f2f4" d="
  M 226.82 95.10
  C 228.37 95.47 229.43 95.56 230.66 95.69
  Q 231.31 95.76 230.99 96.32
  Q 224.15 108.65 222.67 112.19
  Q 218.41 122.35 214.43 132.05
  Q 213.90 133.34 213.53 132.00
  C 211.37 124.30 209.45 118.69 206.28 111.35
  Q 199.07 94.63 197.02 89.24
  Q 196.85 88.78 197.34 88.86
  Q 206.61 90.34 226.82 95.10
  Z"
/>
<path fill="#1d1d1d" d="
  M 53.87 129.73
  L 49.56 129.73
  Q 49.02 129.73 48.97 129.19
  Q 48.36 122.51 49.50 118.54
  Q 50.05 116.62 52.30 114.64
  A 1.37 1.36 -33.3 0 1 54.44 115.08
  C 55.16 116.62 55.34 118.44 55.06 120.36
  Q 54.43 124.66 54.82 128.68
  Q 54.92 129.73 53.87 129.73
  Z"
/>
<path fill="#1d1d1d" d="
  M 115.16 164.68
  Q 115.78 165.88 116.10 166.29
  Q 117.06 167.52 115.80 168.44
  Q 110.24 172.46 105.19 175.43
  Q 59.19 202.46 47.16 209.54
  A 1.60 1.59 58.5 0 1 45.00 209.02
  Q 33.62 191.01 19.96 167.37
  A 3.51 3.51 0.0 0 1 21.21 162.60
  Q 68.46 134.54 81.45 127.24
  Q 85.60 124.91 89.40 123.41
  Q 91.14 122.72 92.10 124.33
  Q 100.60 138.64 110.59 155.84
  Q 110.74 156.10 115.16 164.68
  Z"
/>
<path fill="#f1f2f4" d="
  M 65.99 168.06
  Q 62.67 167.64 39.74 165.63
  Q 31.62 164.92 24.59 164.83
  Q 22.76 164.81 24.34 163.88
  Q 54.07 146.47 80.76 130.73
  Q 83.56 129.08 88.55 125.65
  A 1.07 1.00 -63.6 0 1 88.98 125.49
  Q 90.48 125.27 89.79 126.54
  C 88.65 128.65 87.34 130.74 86.39 132.79
  Q 77.24 152.65 69.19 168.07
  Q 68.95 168.52 68.44 168.49
  C 67.64 168.45 66.92 168.18 65.99 168.06
  Z"
/>
<path fill="#f1f2f4" d="
  M 78.38 155.81
  Q 85.78 141.61 90.97 128.75
  Q 91.21 128.16 91.53 128.71
  Q 104.86 151.90 113.08 164.47
  Q 113.35 164.89 112.87 164.78
  C 111.34 164.44 109.10 163.36 107.33 162.94
  Q 93.05 159.60 78.61 156.30
  A 0.34 0.34 0.0 0 1 78.38 155.81
  Z"
/>
<path fill="#1d1d1d" d="
  M 257.61 157.35
  L 260.20 144.16
  A 1.92 1.92 0.0 0 1 263.03 142.86
  L 264.93 143.94
  A 1.92 1.92 0.0 0 1 265.86 145.98
  L 263.95 155.64
  A 1.92 1.92 0.0 0 1 263.39 156.65
  L 260.83 159.10
  A 1.92 1.92 0.0 0 1 257.61 157.35
  Z"
/>
<path fill="#f1f2f4" d="
  M 71.47 169.59
  L 76.61 159.69
  Q 77.07 158.80 78.04 159.02
  Q 90.15 161.73 99.75 164.02
  Q 105.35 165.36 114.01 166.74
  Q 116.29 167.10 114.12 167.88
  Q 109.59 169.51 101.56 174.27
  Q 69.15 193.52 48.34 205.58
  Q 47.75 205.92 47.95 205.27
  Q 53.48 186.70 56.70 170.49
  Q 56.78 170.07 57.21 170.07
  L 70.68 170.07
  Q 71.22 170.07 71.47 169.59
  Z"
/>
<path fill="#f1f2f4" d="
  M 45.10 205.04
  L 23.62 167.83
  Q 23.34 167.35 23.90 167.37
  Q 38.05 167.95 54.70 169.77
  Q 55.26 169.83 55.07 170.36
  C 53.93 173.57 52.51 177.37 51.59 181.03
  Q 48.55 193.19 45.30 205.01
  Q 45.23 205.27 45.10 205.04
  Z"
/>
<path fill="#1d1d1d" d="
  M 258.46 172.32
  A 1.21 1.21 0.0 0 1 258.96 173.96
  L 255.19 181.06
  A 5.85 2.76 -62.0 0 1 250.00 184.93
  L 249.67 184.75
  A 5.85 2.76 -62.0 0 1 249.98 178.29
  L 253.75 171.19
  A 1.21 1.21 0.0 0 1 255.39 170.69
  L 258.46 172.32
  Z"
/>
<path fill="#1d1d1d" d="
  M 229.70 206.90
  L 238.17 196.09
  A 1.97 1.97 0.0 0 1 240.95 195.76
  L 242.59 197.08
  A 1.97 1.97 0.0 0 1 242.88 199.87
  L 235.66 208.58
  A 1.97 1.97 0.0 0 1 234.66 209.22
  L 231.77 210.02
  A 1.97 1.97 0.0 0 1 229.70 206.90
  Z"
/>
<path fill="#1d1d1d" d="
  M 89.73 209.11
  Q 93.42 217.76 94.66 226.85
  Q 95.00 229.37 92.55 230.43
  Q 92.25 230.56 90.42 230.08
  A 1.78 1.78 0.0 0 1 89.14 228.70
  Q 87.11 218.39 85.85 215.18
  Q 82.74 207.29 80.88 200.19
  Q 80.71 199.57 81.33 199.73
  Q 85.39 200.80 96.93 204.42
  Q 103.10 206.35 110.78 207.15
  A 0.71 0.71 0.0 0 1 111.25 208.32
  Q 110.82 208.81 109.76 209.00
  Q 100.40 210.63 90.32 208.39
  Q 89.33 208.17 89.73 209.11
  Z"
/>
<path fill="#1d1d1d" d="
  M 98.30 214.81
  L 108.76 222.16
  A 2.05 2.05 0.0 0 1 109.46 224.66
  L 108.67 226.46
  A 2.05 2.05 0.0 0 1 105.58 227.29
  L 97.01 221.02
  A 2.05 2.05 0.0 0 1 96.30 220.09
  L 95.21 217.21
  A 2.05 2.05 0.0 0 1 98.30 214.81
  Z"
/>
<path fill="#1d1d1d" d="
  M 219.23 222.48
  A 0.96 0.96 0.0 0 1 218.98 223.81
  L 214.02 227.18
  A 5.47 2.91 -34.2 0 1 207.86 227.85
  L 207.78 227.73
  A 5.47 2.91 -34.2 0 1 210.67 222.25
  L 215.63 218.88
  A 0.96 0.96 0.0 0 1 216.96 219.14
  L 219.23 222.48
  Z"
/>
<path fill="#1d1d1d" d="
  M 133.27 232.52
  L 133.27 236.41
  Q 133.27 237.33 132.36 237.30
  Q 125.99 237.10 120.22 233.84
  Q 118.12 232.65 117.16 229.65
  A 1.16 1.16 0.0 0 1 118.11 228.15
  C 119.65 227.95 122.22 228.39 123.57 229.03
  Q 128.16 231.19 132.26 231.44
  Q 133.27 231.50 133.27 232.52
  Z"
/>
<path fill="#1d1d1d" d="
  M 192.12 235.11
  A 1.17 1.17 0.0 0 1 191.27 236.53
  L 183.93 238.41
  A 6.01 2.89 -14.3 0 1 177.39 237.09
  L 177.35 236.94
  A 6.01 2.89 -14.3 0 1 182.46 232.65
  L 189.80 230.78
  A 1.17 1.17 0.0 0 1 191.23 231.62
  L 192.12 235.11
  Z"
/>
<path fill="#1d1d1d" d="
  M 161.34 240.19
  A 0.85 0.85 0.0 0 1 160.41 240.94
  L 152.56 240.07
  A 6.56 2.86 6.3 0 1 146.36 236.51
  L 146.37 236.35
  A 6.56 2.86 6.3 0 1 153.21 234.23
  L 161.05 235.09
  A 0.85 0.85 0.0 0 1 161.80 236.03
  L 161.34 240.19
  Z"
/>
</svg>
