<?xml version="1.0" encoding="UTF-8" standalone="no"?>
<svg xmlns="http://www.w3.org/2000/svg" version="1.2" baseProfile="tiny" viewBox="0.00 0.00 770.00 622.00">

<g stroke-width="2.00" fill="none" stroke-linecap="butt">
<path stroke="#5d7ecf" vector-effect="non-scaling-stroke" d="
  M 363.83 83.80
  L 356.49 83.74
  Q 356.09 83.73 355.87 83.39
  Q 355.73 83.19 355.49 83.01"
/>
<path stroke="#5d7ecf" vector-effect="non-scaling-stroke" d="
  M 409.38 99.89
  Q 405.67 99.76 401.81 99.88
  C 401.13 99.90 400.84 100.21 400.34 100.64"
/>
<path stroke="#9cb5f7" vector-effect="non-scaling-stroke" d="
  M 400.34 100.64
  Q 400.45 99.96 399.75 99.94
  Q 388.15 99.72 363.91 99.90"
/>
<path stroke="#5d7ecf" vector-effect="non-scaling-stroke" d="
  M 363.91 99.90
  L 355.37 100.06"
/>
<path stroke="#b8c1d0" vector-effect="non-scaling-stroke" d="
  M 363.91 99.90
  Q 372.33 116.72 390.07 120.98
  C 398.38 122.98 409.85 120.65 405.17 109.08
  Q 403.34 104.55 400.34 100.64"
/>
</g>
<path fill="#788aa8" d="
  M 363.83 83.80
  L 356.49 83.74
  Q 356.09 83.73 355.87 83.39
  Q 355.73 83.19 355.49 83.01
  Q 364.68 61.16 387.29 55.03
  C 399.70 51.66 416.38 56.17 413.94 72.51
  C 413.38 76.26 409.02 77.07 406.84 74.41
  Q 406.04 73.44 406.08 71.48
  C 406.13 69.30 406.60 67.52 404.55 64.94
  C 401.84 61.54 393.88 61.68 390.26 62.51
  Q 372.39 66.65 363.83 83.80
  Z"
/>
<path fill="gray" d="
  M 363.83 83.80
  Q 386.61 83.91 409.00 83.82
  C 419.92 83.77 420.39 99.31 409.38 99.89
  Q 405.67 99.76 401.81 99.88
  C 401.13 99.90 400.84 100.21 400.34 100.64
  Q 400.45 99.96 399.75 99.94
  Q 388.15 99.72 363.91 99.90
  L 355.37 100.06
  Q 348.57 98.42 348.10 92.62
  C 347.74 88.14 350.45 84.80 354.82 83.94
  Q 355.31 83.84 355.46 83.37
  Q 355.51 83.20 355.49 83.01
  Q 355.73 83.19 355.87 83.39
  Q 356.09 83.73 356.49 83.74
  L 363.83 83.80
  Z"
/>
<path fill="#788aa8" d="
  M 459.13 101.73
  Q 463.03 106.76 465.12 113.18
  Q 465.99 115.84 463.28 117.86
  Q 463.19 117.93 462.46 118.09
  Q 459.29 118.78 457.85 115.87
  Q 456.39 112.93 455.56 110.98
  Q 454.90 109.41 452.73 106.50
  Q 450.56 103.58 449.24 102.50
  Q 447.61 101.15 445.21 98.91
  Q 442.84 96.69 444.41 93.85
  Q 444.77 93.20 444.86 93.13
  Q 447.57 91.12 449.87 92.71
  Q 455.43 96.55 459.13 101.73
  Z"
/>
<path fill="#788aa8" d="
  M 363.91 99.90
  Q 372.33 116.72 390.07 120.98
  C 398.38 122.98 409.85 120.65 405.17 109.08
  Q 403.34 104.55 400.34 100.64
  C 400.84 100.21 401.13 99.90 401.81 99.88
  Q 405.67 99.76 409.38 99.89
  C 414.06 106.79 416.47 116.31 411.11 123.27
  C 407.03 128.56 398.86 130.15 392.51 129.41
  C 375.53 127.42 361.53 115.93 355.37 100.06
  L 363.91 99.90
  Z"
/>
<path fill="#f7f7f7" d="
  M 400.34 100.64
  Q 403.34 104.55 405.17 109.08
  C 409.85 120.65 398.38 122.98 390.07 120.98
  Q 372.33 116.72 363.91 99.90
  Q 388.15 99.72 399.75 99.94
  Q 400.45 99.96 400.34 100.64
  Z"
/>
<path fill="#788aa8" d="
  M 462.05 152.87
  Q 458.43 159.10 453.38 163.62
  C 451.84 165.00 449.13 164.53 447.89 163.01
  Q 446.74 161.61 447.09 159.67
  Q 447.28 158.66 448.78 157.07
  Q 452.89 152.72 455.13 148.86
  Q 457.37 145.00 459.10 139.27
  Q 459.73 137.18 460.51 136.51
  Q 462.02 135.25 463.81 135.55
  C 465.75 135.87 467.50 137.99 467.07 140.01
  Q 465.65 146.64 462.05 152.87
  Z"
/>
<path fill="#788aa8" d="
  M 425.74 179.01
  Q 418.79 181.19 413.00 182.02
  Q 411.48 182.24 410.02 180.83
  C 408.34 179.20 408.56 176.44 410.37 175.03
  Q 411.21 174.37 413.31 173.92
  Q 419.27 172.66 423.34 171.38
  Q 427.42 170.10 433.03 167.73
  Q 435.01 166.90 436.07 166.96
  C 438.36 167.08 440.12 169.22 439.68 171.52
  Q 439.28 173.51 437.91 174.20
  Q 432.68 176.83 425.74 179.01
  Z"
/>
<rect fill="#788aa8" x="-16.66" y="-4.02" transform="translate(378.98,180.31) rotate(1.3)" width="33.32" height="8.04" rx="3.88"/>
<path fill="#788aa8" d="
  M 335.23 185.86
  Q 330.74 186.91 325.37 188.83
  C 322.93 189.71 320.48 189.51 319.48 187.13
  Q 318.09 183.82 321.38 181.91
  Q 324.29 180.22 333.40 178.08
  Q 342.52 175.95 345.88 176.17
  Q 349.68 176.41 349.90 180.00
  C 350.06 182.57 347.96 183.84 345.38 184.14
  Q 339.72 184.81 335.23 185.86
  Z"
/>
<path fill="#788aa8" d="
  M 351.50 363.31
  A 0.23 0.22 27.4 0 0 351.39 362.97
  L 195.93 312.37
  A 1.86 1.84 -7.6 0 1 194.94 311.62
  Q 178.28 286.80 161.67 262.23
  Q 157.91 256.66 157.40 255.32
  C 155.55 250.47 157.35 244.42 161.74 241.42
  Q 163.41 240.28 167.78 238.86
  Q 238.30 215.98 308.79 193.03
  Q 314.22 191.26 318.60 193.93
  Q 321.05 195.42 324.69 200.76
  Q 339.07 221.87 359.85 252.45
  A 3.40 3.38 81.9 0 0 361.64 253.80
  L 516.04 304.06
  Q 516.39 304.18 516.59 303.87
  Q 545.56 260.90 550.47 253.72
  Q 552.24 251.12 550.62 248.88
  C 549.57 247.44 547.64 247.07 545.95 246.52
  Q 474.28 223.18 405.01 200.72
  Q 401.74 199.65 399.80 202.51
  L 372.16 243.13
  Q 370.30 245.87 367.17 244.66
  Q 367.05 244.62 367.04 244.61
  Q 363.28 242.07 365.46 238.84
  Q 376.90 221.85 391.67 200.24
  Q 395.04 195.31 397.51 193.92
  C 401.52 191.67 404.94 192.29 409.55 193.78
  Q 483.11 217.62 551.92 240.04
  Q 556.15 241.42 558.56 247.17
  Q 559.96 250.50 558.97 254.08
  Q 558.38 256.20 555.83 260.00
  Q 543.55 278.24 523.14 308.48
  A 0.79 0.79 0.0 0 0 523.15 309.37
  Q 534.08 325.52 561.81 366.78
  C 565.32 372.00 564.44 379.18 559.32 383.05
  Q 557.48 384.44 552.93 385.93
  Q 543.19 389.13 522.42 395.85
  Q 521.99 395.99 521.99 396.44
  Q 521.99 436.24 521.99 450.75
  Q 521.99 460.74 520.48 464.59
  Q 518.34 470.02 513.48 473.39
  Q 510.70 475.32 503.41 477.51
  Q 380.74 514.34 363.26 519.55
  Q 358.41 521.00 352.64 519.33
  Q 331.12 513.11 215.44 478.35
  Q 204.80 475.15 201.48 472.56
  Q 197.04 469.07 195.16 463.50
  Q 194.01 460.07 194.01 452.85
  Q 194.00 421.06 194.04 412.26
  Q 194.06 408.50 197.93 408.39
  Q 197.96 408.39 198.09 408.39
  Q 201.94 408.50 201.96 412.24
  Q 202.02 425.09 201.98 453.13
  Q 201.97 459.59 203.21 462.17
  Q 205.56 467.01 210.69 468.55
  Q 282.10 489.93 355.53 511.98
  C 357.45 512.56 360.34 512.07 362.59 511.40
  Q 447.72 485.88 504.18 468.92
  Q 514.05 465.96 514.04 455.76
  Q 513.99 421.53 514.00 399.12
  A 0.39 0.39 0.0 0 0 513.49 398.75
  Q 464.36 414.74 415.20 430.66
  Q 409.11 432.63 406.21 432.24
  Q 401.10 431.55 397.93 426.88
  Q 375.74 394.17 366.10 379.89
  Q 363.98 376.75 367.15 374.49
  Q 367.20 374.45 367.28 374.40
  Q 370.55 372.27 372.71 375.45
  Q 397.81 412.40 404.01 421.55
  C 405.93 424.40 407.24 424.85 410.52 423.78
  Q 471.83 403.91 551.71 377.89
  Q 554.34 377.03 555.27 375.87
  Q 556.94 373.80 555.13 371.13
  Q 537.27 344.66 516.07 313.22
  A 3.32 3.31 81.8 0 0 514.35 311.93
  L 358.47 261.18
  A 1.29 1.23 43.7 0 0 357.74 261.18
  L 223.76 304.77
  Q 219.92 306.02 218.89 302.25
  Q 218.86 302.14 218.84 302.10
  Q 217.45 298.43 221.39 297.15
  L 351.38 254.81
  A 0.25 0.25 0.0 0 0 351.51 254.43
  L 316.03 202.23
  A 4.10 4.10 0.0 0 0 311.37 200.63
  L 167.37 247.40
  A 4.02 4.02 0.0 0 0 165.29 253.48
  L 200.14 304.74
  A 2.66 2.64 81.8 0 0 201.51 305.77
  L 356.53 356.23
  Q 357.96 356.69 359.40 356.23
  L 493.82 312.59
  Q 497.65 311.34 499.15 315.63
  Q 499.16 315.67 499.19 315.78
  A 4.51 3.74 -15.3 0 1 496.02 320.31
  L 361.45 363.96
  A 2.77 2.76 -81.7 0 0 359.99 365.05
  Q 336.98 399.04 320.20 423.77
  Q 316.35 429.46 313.51 430.98
  C 308.63 433.60 304.73 431.96 298.82 430.03
  Q 162.07 385.52 160.52 385.02
  C 154.38 383.02 150.73 376.83 152.43 370.59
  Q 153.00 368.50 155.59 364.66
  Q 173.18 338.54 184.66 321.60
  Q 186.80 318.45 190.07 320.58
  Q 190.10 320.61 190.20 320.68
  Q 193.35 322.97 191.23 326.11
  Q 175.75 349.08 160.91 371.12
  Q 158.81 374.23 161.00 376.23
  Q 161.99 377.14 164.94 378.10
  Q 235.98 401.13 306.57 424.11
  A 4.29 4.29 0.0 0 0 311.44 422.44
  L 351.50 363.31
  Z"
/>
<path fill="#788aa8" d="
  M 306.34 224.05
  Q 306.36 226.32 306.74 229.51
  Q 307.02 231.97 306.53 232.96
  C 304.67 236.72 299.80 235.79 299.00 231.77
  Q 298.38 228.64 298.34 224.13
  Q 298.30 219.61 298.86 216.47
  C 299.59 212.44 304.44 211.42 306.37 215.15
  Q 306.88 216.13 306.64 218.59
  Q 306.32 221.79 306.34 224.05
  Z"
/>
<rect fill="#788aa8" x="-3.99" y="-9.57" transform="translate(311.73,254.01) rotate(-31.6)" width="7.98" height="19.14" rx="3.86"/>
<path fill="gray" d="
  M 357.92 348.24
  L 237.84 309.20
  A 0.34 0.34 0.0 0 1 237.84 308.56
  L 357.92 269.53
  A 0.34 0.34 0.0 0 1 358.14 269.53
  L 478.22 308.57
  A 0.34 0.34 0.0 0 1 478.22 309.21
  L 358.14 348.24
  A 0.34 0.34 0.0 0 1 357.92 348.24
  Z"
/>
</svg>
